<svg id="svg" version="1.1" xmlns="http://www.w3.org/2000/svg" xmlns:xlink="http://www.w3.org/1999/xlink" width="400" height="400" viewBox="0, 0, 400,400"><g id="svgg"><path id="path0" d="M193.200 12.200 C 193.200 13.044,193.013 13.200,192.000 13.200 C 190.460 13.200,189.200 14.460,189.200 16.000 C 189.200 17.013,189.044 17.200,188.200 17.200 L 187.200 17.200 187.200 46.000 L 187.200 74.800 188.200 74.800 C 189.000 74.800,189.200 75.000,189.200 75.800 C 189.200 76.600,189.400 76.800,190.200 76.800 C 191.000 76.800,191.200 77.000,191.200 77.800 C 191.200 78.595,191.401 78.800,192.182 78.800 C 192.722 78.800,193.614 79.250,194.164 79.800 L 195.164 80.800 223.982 80.800 L 252.800 80.800 252.800 79.800 L 252.800 78.800 256.800 78.800 L 260.800 78.800 260.800 77.800 C 260.800 76.867,260.934 76.800,262.792 76.800 C 264.573 76.800,264.811 76.696,265.030 75.821 C 265.235 75.008,265.557 74.822,266.938 74.721 C 268.298 74.622,268.623 74.441,268.725 73.724 C 268.812 73.111,269.172 72.811,269.925 72.724 C 270.687 72.636,271.037 72.338,271.128 71.700 C 271.216 71.079,271.528 70.800,272.133 70.800 C 272.659 70.800,273.168 70.440,273.405 69.900 C 273.693 69.245,274.198 68.967,275.262 68.878 C 276.430 68.781,276.774 68.559,276.970 67.778 C 277.148 67.069,277.489 66.800,278.208 66.800 C 278.999 66.800,279.200 66.598,279.200 65.800 C 279.200 64.961,279.389 64.800,280.371 64.800 C 281.505 64.800,282.800 63.932,282.800 63.171 C 282.800 62.967,283.247 62.800,283.792 62.800 C 284.517 62.800,284.852 62.531,285.036 61.800 C 285.216 61.082,285.557 60.800,286.243 60.800 C 286.997 60.800,287.200 60.588,287.200 59.800 C 287.200 58.869,287.335 58.800,289.171 58.800 C 290.797 58.800,291.280 58.625,291.929 57.800 L 292.715 56.800 313.958 56.800 L 335.200 56.800 335.200 57.800 C 335.200 58.733,335.333 58.800,337.200 58.800 C 338.300 58.800,339.200 58.967,339.200 59.171 C 339.200 59.978,340.527 60.800,341.829 60.800 C 343.025 60.800,343.200 60.928,343.200 61.800 C 343.200 62.600,343.400 62.800,344.200 62.800 C 345.000 62.800,345.200 63.000,345.200 63.800 C 345.200 64.594,345.401 64.800,346.178 64.800 C 347.061 64.800,347.168 64.985,347.278 66.700 C 347.382 68.321,347.532 68.619,348.300 68.728 C 349.082 68.839,349.200 69.093,349.200 70.670 C 349.200 72.129,349.396 72.639,350.200 73.271 L 351.200 74.058 351.200 159.629 L 351.200 245.200 350.200 245.200 C 349.222 245.200,349.200 245.267,349.200 248.200 C 349.200 251.133,349.178 251.200,348.200 251.200 C 347.408 251.200,347.200 251.402,347.200 252.172 C 347.200 252.876,346.951 253.180,346.300 253.272 C 345.737 253.352,345.354 253.721,345.278 254.259 C 345.210 254.732,344.792 255.213,344.348 255.330 C 343.904 255.446,343.443 255.914,343.324 256.370 C 343.181 256.917,342.782 257.200,342.153 257.200 C 341.409 257.200,341.200 257.414,341.200 258.178 C 341.200 259.061,341.015 259.168,339.300 259.278 C 337.679 259.382,337.381 259.532,337.272 260.300 L 337.144 261.200 319.216 261.200 L 301.287 261.200 301.036 260.200 C 300.815 259.322,300.569 259.200,299.020 259.200 C 297.495 259.200,297.238 259.078,297.128 258.300 C 297.047 257.730,296.679 257.354,296.125 257.275 C 295.579 257.198,295.202 256.821,295.125 256.275 C 295.046 255.721,294.670 255.353,294.100 255.272 C 293.449 255.180,293.200 254.876,293.200 254.172 C 293.200 253.408,292.991 253.200,292.222 253.200 C 291.339 253.200,291.232 253.015,291.122 251.300 C 291.018 249.679,290.868 249.381,290.100 249.272 C 289.347 249.165,289.200 248.896,289.200 247.622 C 289.200 245.118,288.737 243.509,287.960 243.305 C 287.422 243.165,287.210 242.648,287.120 241.259 C 287.018 239.680,286.865 239.381,286.100 239.272 C 285.354 239.166,285.199 238.893,285.196 237.672 C 285.187 234.812,284.745 233.200,283.970 233.200 C 283.388 233.200,283.220 232.824,283.122 231.300 C 283.018 229.679,282.868 229.381,282.100 229.272 C 281.326 229.162,281.200 228.904,281.200 227.422 C 281.200 224.576,280.793 223.200,279.950 223.200 C 279.331 223.200,279.200 222.894,279.200 221.446 C 279.200 220.016,279.015 219.571,278.200 219.037 C 277.419 218.525,277.200 218.043,277.200 216.837 C 277.200 215.611,277.029 215.249,276.370 215.076 C 275.914 214.957,275.447 214.503,275.333 214.067 C 275.219 213.631,274.769 213.181,274.333 213.067 C 273.897 212.953,273.443 212.486,273.324 212.030 C 273.168 211.436,272.784 211.200,271.972 211.200 C 271.294 211.200,270.433 210.797,269.836 210.200 C 268.909 209.273,268.558 209.200,265.018 209.200 C 261.212 209.200,261.200 209.203,261.200 210.200 C 261.200 211.133,261.067 211.200,259.200 211.200 C 257.333 211.200,257.200 211.267,257.200 212.200 C 257.200 213.000,257.000 213.200,256.200 213.200 C 255.400 213.200,255.200 213.400,255.200 214.200 C 255.200 215.000,255.000 215.200,254.200 215.200 L 253.200 215.200 253.200 222.219 C 253.200 229.192,253.207 229.244,254.200 230.165 C 254.990 230.897,255.200 231.482,255.200 232.946 C 255.200 234.657,255.277 234.800,256.200 234.800 C 257.154 234.800,257.200 234.909,257.200 237.171 C 257.200 239.449,257.806 240.800,258.829 240.800 C 259.033 240.800,259.200 241.700,259.200 242.800 C 259.200 244.657,259.270 244.800,260.182 244.800 C 261.115 244.800,261.169 244.932,261.282 247.500 C 261.385 249.857,261.514 250.250,262.300 250.595 C 263.052 250.925,263.200 251.303,263.200 252.895 C 263.200 254.651,263.277 254.800,264.182 254.800 C 265.125 254.800,265.170 254.919,265.282 257.700 C 265.390 260.361,265.474 260.611,266.300 260.728 C 267.094 260.841,267.200 261.087,267.200 262.828 C 267.200 264.665,267.269 264.800,268.200 264.800 C 269.005 264.800,269.200 264.999,269.200 265.818 C 269.200 266.378,269.650 267.286,270.200 267.836 C 270.750 268.386,271.200 269.278,271.200 269.818 C 271.200 270.599,271.405 270.800,272.200 270.800 C 273.000 270.800,273.200 271.000,273.200 271.800 C 273.200 272.600,273.400 272.800,274.200 272.800 C 275.000 272.800,275.200 273.000,275.200 273.800 C 275.200 274.600,275.400 274.800,276.200 274.800 C 277.000 274.800,277.200 275.000,277.200 275.800 C 277.200 276.600,277.400 276.800,278.200 276.800 C 279.000 276.800,279.200 277.000,279.200 277.800 C 279.200 278.672,279.375 278.800,280.571 278.800 C 281.557 278.800,282.163 279.081,282.729 279.800 C 283.161 280.350,283.882 280.800,284.330 280.800 C 284.870 280.800,285.187 281.103,285.272 281.700 C 285.380 282.456,285.685 282.620,287.179 282.727 C 288.442 282.817,289.220 283.136,289.860 283.827 C 290.671 284.702,291.085 284.800,293.981 284.800 C 297.148 284.800,297.200 284.816,297.200 285.800 L 297.200 286.800 319.371 286.800 C 342.520 286.800,342.800 286.781,342.800 285.171 C 342.800 284.967,344.150 284.800,345.800 284.800 C 348.733 284.800,348.800 284.778,348.800 283.800 C 348.800 282.867,348.933 282.800,350.800 282.800 C 352.667 282.800,352.800 282.733,352.800 281.800 C 352.800 280.867,352.933 280.800,354.800 280.800 C 356.667 280.800,356.800 280.733,356.800 279.800 C 356.800 279.000,357.000 278.800,357.800 278.800 C 358.600 278.800,358.800 278.600,358.800 277.800 C 358.800 277.080,359.015 276.800,359.569 276.800 C 359.992 276.800,360.937 276.259,361.669 275.597 C 362.401 274.935,363.405 274.041,363.900 273.611 C 364.395 273.181,364.800 272.372,364.800 271.814 C 364.800 270.999,364.996 270.800,365.800 270.800 C 366.600 270.800,366.800 270.600,366.800 269.800 C 366.800 269.000,367.000 268.800,367.800 268.800 C 368.572 268.800,368.800 268.594,368.800 267.895 C 368.800 267.340,369.148 266.837,369.700 266.595 C 370.395 266.290,370.628 265.813,370.723 264.500 C 370.832 262.998,370.960 262.800,371.823 262.800 C 372.772 262.800,372.800 262.715,372.800 259.800 C 372.800 256.867,372.822 256.800,373.800 256.800 C 374.800 256.800,374.800 256.799,374.800 252.818 C 374.800 249.103,374.867 248.769,375.801 247.835 L 376.802 246.835 376.701 159.117 L 376.600 71.400 375.700 71.272 C 374.822 71.147,374.800 71.024,374.800 66.172 L 374.800 61.200 373.800 61.200 C 372.867 61.200,372.800 61.067,372.800 59.200 C 372.800 57.333,372.733 57.200,371.800 57.200 C 370.867 57.200,370.800 57.067,370.800 55.200 C 370.800 53.345,370.729 53.200,369.822 53.200 C 368.939 53.200,368.832 53.015,368.722 51.300 C 368.618 49.679,368.468 49.381,367.700 49.272 C 367.049 49.180,366.800 48.876,366.800 48.172 C 366.800 47.402,366.592 47.200,365.800 47.200 C 365.000 47.200,364.800 47.000,364.800 46.200 C 364.800 45.400,364.600 45.200,363.800 45.200 C 363.000 45.200,362.800 45.000,362.800 44.200 C 362.800 43.400,362.600 43.200,361.800 43.200 C 361.000 43.200,360.800 43.000,360.800 42.200 C 360.800 41.408,360.598 41.200,359.828 41.200 C 359.124 41.200,358.820 40.951,358.728 40.300 C 358.619 39.532,358.321 39.382,356.700 39.278 C 354.985 39.168,354.800 39.061,354.800 38.178 C 354.800 37.271,354.655 37.200,352.800 37.200 C 350.933 37.200,350.800 37.133,350.800 36.200 C 350.800 35.273,350.660 35.200,348.895 35.200 C 347.303 35.200,346.925 35.052,346.595 34.300 C 346.216 33.436,345.976 33.396,340.526 33.289 C 335.007 33.181,334.849 33.154,334.726 32.289 L 334.600 31.400 313.000 31.400 L 291.400 31.400 291.272 32.300 C 291.147 33.178,291.024 33.200,286.172 33.200 L 281.200 33.200 281.200 34.200 C 281.200 35.146,281.081 35.200,278.981 35.200 C 277.128 35.200,276.609 35.365,275.835 36.200 C 275.325 36.750,274.524 37.200,274.054 37.200 C 273.410 37.200,273.200 37.446,273.200 38.200 C 273.200 39.133,273.067 39.200,271.200 39.200 C 269.333 39.200,269.200 39.267,269.200 40.200 C 269.200 41.000,269.000 41.200,268.200 41.200 C 267.400 41.200,267.200 41.400,267.200 42.200 C 267.200 43.005,267.001 43.200,266.182 43.200 C 265.622 43.200,264.714 43.650,264.164 44.200 C 263.614 44.750,262.722 45.200,262.182 45.200 C 261.401 45.200,261.200 45.405,261.200 46.200 C 261.200 47.000,261.000 47.200,260.200 47.200 C 259.406 47.200,259.200 47.402,259.200 48.177 C 259.200 49.040,259.002 49.168,257.500 49.277 C 256.187 49.372,255.710 49.605,255.405 50.300 C 255.163 50.852,254.660 51.200,254.105 51.200 C 253.412 51.200,253.200 51.429,253.200 52.178 C 253.200 53.061,253.015 53.168,251.300 53.278 C 249.679 53.382,249.381 53.532,249.272 54.300 L 249.144 55.200 230.972 55.200 L 212.800 55.200 212.800 37.981 L 212.800 20.762 211.800 19.835 C 211.010 19.103,210.800 18.518,210.800 17.054 C 210.800 15.343,210.723 15.200,209.800 15.200 C 209.000 15.200,208.800 15.000,208.800 14.200 C 208.800 13.267,208.667 13.200,206.800 13.200 C 204.933 13.200,204.800 13.133,204.800 12.200 L 204.800 11.200 199.000 11.200 L 193.200 11.200 193.200 12.200 M63.200 30.197 L 63.200 31.200 58.200 31.200 L 53.200 31.200 53.200 32.200 C 53.200 33.133,53.067 33.200,51.200 33.200 C 49.333 33.200,49.200 33.267,49.200 34.200 C 49.200 35.133,49.067 35.200,47.200 35.200 C 45.333 35.200,45.200 35.267,45.200 36.200 C 45.200 37.133,45.067 37.200,43.200 37.200 C 41.333 37.200,41.200 37.267,41.200 38.200 C 41.200 39.000,41.000 39.200,40.200 39.200 C 39.400 39.200,39.200 39.400,39.200 40.200 C 39.200 41.000,39.000 41.200,38.200 41.200 C 37.400 41.200,37.200 41.400,37.200 42.200 C 37.200 43.000,37.000 43.200,36.200 43.200 C 35.400 43.200,35.200 43.400,35.200 44.200 C 35.200 45.000,35.000 45.200,34.200 45.200 C 33.400 45.200,33.200 45.400,33.200 46.200 C 33.200 47.000,33.000 47.200,32.200 47.200 C 31.267 47.200,31.200 47.333,31.200 49.200 C 31.200 51.067,31.133 51.200,30.200 51.200 C 29.267 51.200,29.200 51.333,29.200 53.200 C 29.200 55.067,29.133 55.200,28.200 55.200 C 27.267 55.200,27.200 55.333,27.200 57.200 C 27.200 59.067,27.133 59.200,26.200 59.200 L 25.200 59.200 25.200 64.176 C 25.200 67.216,25.037 69.254,24.781 69.412 C 24.490 69.591,24.496 69.834,24.800 70.200 C 25.080 70.537,25.097 70.817,24.847 70.971 C 24.632 71.104,24.340 71.027,24.200 70.800 C 23.303 69.348,23.213 77.153,23.204 157.659 L 23.193 244.479 24.197 245.269 C 25.158 246.025,25.200 246.239,25.200 250.429 L 25.200 254.800 26.182 254.800 C 27.125 254.800,27.170 254.919,27.282 257.700 C 27.390 260.361,27.474 260.611,28.300 260.728 C 29.003 260.828,29.200 261.116,29.200 262.047 C 29.200 262.804,29.565 263.576,30.200 264.165 C 30.750 264.675,31.200 265.476,31.200 265.946 C 31.200 266.590,31.446 266.800,32.200 266.800 C 33.000 266.800,33.200 267.000,33.200 267.800 C 33.200 268.600,33.400 268.800,34.200 268.800 C 35.000 268.800,35.200 269.000,35.200 269.800 C 35.200 270.600,35.400 270.800,36.200 270.800 C 37.000 270.800,37.200 271.000,37.200 271.800 C 37.200 272.600,37.400 272.800,38.200 272.800 C 39.000 272.800,39.200 273.000,39.200 273.800 C 39.200 274.600,39.400 274.800,40.200 274.800 C 41.000 274.800,41.200 275.000,41.200 275.800 C 41.200 276.592,41.402 276.800,42.172 276.800 C 42.876 276.800,43.180 277.049,43.272 277.700 C 43.381 278.468,43.679 278.618,45.300 278.722 C 47.015 278.832,47.200 278.939,47.200 279.822 C 47.200 280.727,47.347 280.800,49.172 280.800 C 50.913 280.800,51.159 280.906,51.272 281.700 C 51.393 282.554,51.600 282.606,55.300 282.714 C 59.151 282.828,59.200 282.841,59.200 283.818 L 59.200 284.807 80.900 284.703 L 102.600 284.600 102.728 283.700 C 102.847 282.859,103.050 282.800,105.828 282.800 C 108.717 282.800,108.800 282.772,108.800 281.818 C 108.800 280.885,108.932 280.831,111.500 280.718 C 113.857 280.615,114.250 280.486,114.595 279.700 C 114.837 279.148,115.340 278.800,115.895 278.800 C 116.594 278.800,116.800 278.572,116.800 277.800 C 116.800 276.867,116.933 276.800,118.800 276.800 C 120.667 276.800,120.800 276.733,120.800 275.800 C 120.800 275.000,121.000 274.800,121.800 274.800 C 122.600 274.800,122.800 274.600,122.800 273.800 C 122.800 273.000,123.000 272.800,123.800 272.800 C 124.600 272.800,124.800 272.600,124.800 271.800 C 124.800 271.000,125.000 270.800,125.800 270.800 C 126.600 270.800,126.800 270.600,126.800 269.800 C 126.800 269.000,127.000 268.800,127.800 268.800 C 128.733 268.800,128.800 268.667,128.800 266.800 C 128.800 264.933,128.867 264.800,129.800 264.800 C 130.600 264.800,130.800 264.600,130.800 263.800 C 130.800 263.000,131.000 262.800,131.800 262.800 C 132.727 262.800,132.800 262.660,132.800 260.895 C 132.800 259.303,132.948 258.925,133.700 258.595 C 134.486 258.250,134.615 257.857,134.718 255.500 C 134.831 252.932,134.885 252.800,135.818 252.800 C 136.730 252.800,136.800 252.657,136.800 250.800 C 136.800 249.700,136.967 248.800,137.171 248.800 C 138.194 248.800,138.800 247.449,138.800 245.171 C 138.800 242.909,138.846 242.800,139.800 242.800 C 140.723 242.800,140.800 242.657,140.800 240.946 C 140.800 239.482,141.010 238.897,141.800 238.165 C 142.635 237.391,142.800 236.872,142.800 235.019 C 142.800 232.919,142.854 232.800,143.800 232.800 C 144.732 232.800,144.800 232.665,144.800 230.818 C 144.800 229.238,145.002 228.634,145.800 227.836 C 146.602 227.034,146.800 226.438,146.800 224.818 C 146.800 222.932,146.865 222.800,147.800 222.800 C 148.733 222.800,148.800 222.667,148.800 220.800 C 148.800 218.933,148.867 218.800,149.800 218.800 C 150.600 218.800,150.800 218.600,150.800 217.800 C 150.800 217.000,151.000 216.800,151.800 216.800 C 152.600 216.800,152.800 216.600,152.800 215.800 C 152.800 215.000,153.000 214.800,153.800 214.800 C 154.600 214.800,154.800 214.600,154.800 213.800 C 154.800 213.000,155.000 212.800,155.800 212.800 C 156.600 212.800,156.800 212.600,156.800 211.800 C 156.800 211.000,157.000 210.800,157.800 210.800 C 158.600 210.800,158.800 210.600,158.800 209.800 C 158.800 208.867,158.933 208.800,160.800 208.800 C 162.667 208.800,162.800 208.733,162.800 207.800 C 162.800 206.854,162.919 206.800,165.019 206.800 C 166.872 206.800,167.391 206.635,168.165 205.800 L 169.092 204.800 195.946 204.800 L 222.800 204.800 222.800 203.800 C 222.800 202.867,222.933 202.800,224.800 202.800 C 226.667 202.800,226.800 202.733,226.800 201.800 C 226.800 201.000,227.000 200.800,227.800 200.800 C 228.600 200.800,228.800 200.600,228.800 199.800 C 228.800 198.998,228.999 198.800,229.809 198.800 L 230.818 198.800 230.709 191.300 C 230.602 183.955,230.581 183.792,229.700 183.405 C 229.148 183.163,228.800 182.660,228.800 182.105 C 228.800 181.286,228.611 181.200,226.800 181.200 C 224.933 181.200,224.800 181.133,224.800 180.200 L 224.800 179.200 195.000 179.200 L 165.200 179.200 165.200 180.200 L 165.200 181.200 161.200 181.200 C 157.219 181.200,157.200 181.205,157.200 182.182 C 157.200 183.125,157.081 183.170,154.300 183.282 C 151.660 183.389,151.389 183.479,151.275 184.279 C 151.169 185.021,150.856 185.177,149.275 185.279 C 147.679 185.382,147.381 185.534,147.272 186.300 C 147.180 186.951,146.876 187.200,146.172 187.200 C 145.402 187.200,145.200 187.408,145.200 188.200 C 145.200 189.133,145.067 189.200,143.200 189.200 C 141.333 189.200,141.200 189.267,141.200 190.200 C 141.200 191.000,141.000 191.200,140.200 191.200 C 139.400 191.200,139.200 191.400,139.200 192.200 C 139.200 193.000,139.000 193.200,138.200 193.200 C 137.400 193.200,137.200 193.400,137.200 194.200 C 137.200 195.000,137.000 195.200,136.200 195.200 C 135.400 195.200,135.200 195.400,135.200 196.200 C 135.200 197.000,135.000 197.200,134.200 197.200 C 133.400 197.200,133.200 197.400,133.200 198.200 C 133.200 199.000,133.000 199.200,132.200 199.200 C 131.400 199.200,131.200 199.400,131.200 200.200 C 131.200 201.000,131.000 201.200,130.200 201.200 C 129.328 201.200,129.200 201.375,129.200 202.571 C 129.200 203.557,128.919 204.163,128.200 204.729 C 127.650 205.161,127.200 205.894,127.200 206.358 C 127.200 206.989,126.950 207.200,126.200 207.200 C 125.267 207.200,125.200 207.333,125.200 209.200 C 125.200 211.067,125.133 211.200,124.200 211.200 C 123.268 211.200,123.200 211.335,123.200 213.182 C 123.200 214.762,122.998 215.366,122.200 216.164 C 121.398 216.966,121.200 217.562,121.200 219.182 C 121.200 221.068,121.135 221.200,120.200 221.200 C 119.246 221.200,119.200 221.309,119.200 223.571 C 119.200 225.624,119.066 226.048,118.200 226.729 C 117.392 227.364,117.200 227.869,117.200 229.358 C 117.200 231.056,117.122 231.200,116.200 231.200 C 115.222 231.200,115.200 231.267,115.200 234.200 C 115.200 237.133,115.178 237.200,114.200 237.200 C 113.267 237.200,113.200 237.333,113.200 239.200 C 113.200 241.067,113.133 241.200,112.200 241.200 C 111.222 241.200,111.200 241.267,111.200 244.200 C 111.200 247.133,111.178 247.200,110.200 247.200 C 109.267 247.200,109.200 247.333,109.200 249.200 C 109.200 251.067,109.133 251.200,108.200 251.200 C 107.400 251.200,107.200 251.400,107.200 252.200 C 107.200 253.000,107.000 253.200,106.200 253.200 C 105.400 253.200,105.200 253.400,105.200 254.200 C 105.200 255.000,105.000 255.200,104.200 255.200 C 103.400 255.200,103.200 255.400,103.200 256.200 C 103.200 257.133,103.067 257.200,101.200 257.200 C 99.333 257.200,99.200 257.267,99.200 258.200 L 99.200 259.200 81.000 259.200 L 62.800 259.200 62.800 258.200 C 62.800 257.267,62.667 257.200,60.800 257.200 C 58.933 257.200,58.800 257.133,58.800 256.200 C 58.800 255.408,58.598 255.200,57.828 255.200 C 57.124 255.200,56.820 254.951,56.728 254.300 C 56.646 253.722,56.278 253.354,55.700 253.272 C 55.049 253.180,54.800 252.876,54.800 252.172 C 54.800 251.402,54.592 251.200,53.800 251.200 C 53.000 251.200,52.800 251.000,52.800 250.200 C 52.800 249.400,52.600 249.200,51.800 249.200 C 50.822 249.200,50.800 249.133,50.800 246.200 C 50.800 243.267,50.778 243.200,49.800 243.200 L 48.800 243.200 48.800 157.629 L 48.800 72.058 49.800 71.271 C 50.594 70.647,50.800 70.125,50.800 68.737 C 50.800 67.309,50.964 66.918,51.700 66.595 C 52.395 66.290,52.628 65.813,52.723 64.500 C 52.832 62.998,52.960 62.800,53.823 62.800 C 54.591 62.800,54.800 62.592,54.800 61.828 C 54.800 61.124,55.049 60.820,55.700 60.728 C 56.278 60.646,56.646 60.278,56.728 59.700 C 56.813 59.103,57.130 58.800,57.670 58.800 C 58.118 58.800,58.832 58.359,59.256 57.820 C 59.887 57.018,60.444 56.817,62.314 56.720 C 64.337 56.614,64.615 56.497,64.728 55.700 L 64.856 54.800 87.028 54.800 L 109.200 54.800 109.200 55.800 C 109.200 56.733,109.333 56.800,111.200 56.800 C 113.067 56.800,113.200 56.867,113.200 57.800 C 113.200 58.600,113.400 58.800,114.200 58.800 C 115.000 58.800,115.200 59.000,115.200 59.800 C 115.200 60.672,115.375 60.800,116.571 60.800 C 117.557 60.800,118.163 61.081,118.729 61.800 C 119.161 62.350,119.894 62.800,120.358 62.800 C 120.989 62.800,121.200 63.050,121.200 63.800 C 121.200 64.600,121.400 64.800,122.200 64.800 C 123.000 64.800,123.200 65.000,123.200 65.800 C 123.200 66.733,123.333 66.800,125.200 66.800 C 127.067 66.800,127.200 66.867,127.200 67.800 C 127.200 68.600,127.400 68.800,128.200 68.800 C 129.000 68.800,129.200 69.000,129.200 69.800 C 129.200 70.592,129.402 70.800,130.172 70.800 C 130.876 70.800,131.180 71.049,131.272 71.700 C 131.381 72.468,131.679 72.618,133.300 72.722 C 135.015 72.832,135.200 72.939,135.200 73.822 C 135.200 74.599,135.406 74.800,136.200 74.800 C 137.000 74.800,137.200 75.000,137.200 75.800 C 137.200 76.733,137.333 76.800,139.200 76.800 C 141.067 76.800,141.200 76.867,141.200 77.800 L 141.200 78.800 146.000 78.800 L 150.800 78.800 150.800 77.800 C 150.800 76.867,150.933 76.800,152.800 76.800 C 154.667 76.800,154.800 76.733,154.800 75.800 C 154.800 75.000,155.000 74.800,155.800 74.800 C 156.733 74.800,156.800 74.667,156.800 72.800 C 156.800 70.933,156.867 70.800,157.800 70.800 L 158.800 70.800 158.800 65.781 C 158.800 60.941,158.764 60.729,157.800 59.835 C 157.250 59.325,156.800 58.524,156.800 58.054 C 156.800 57.410,156.554 57.200,155.800 57.200 C 155.000 57.200,154.800 57.000,154.800 56.200 C 154.800 55.400,154.600 55.200,153.800 55.200 C 153.000 55.200,152.800 55.000,152.800 54.200 C 152.800 53.328,152.625 53.200,151.429 53.200 C 150.443 53.200,149.837 52.919,149.271 52.200 C 148.839 51.650,148.106 51.200,147.642 51.200 C 147.011 51.200,146.800 50.950,146.800 50.200 C 146.800 49.408,146.598 49.200,145.828 49.200 C 145.124 49.200,144.820 48.951,144.728 48.300 C 144.619 47.532,144.321 47.382,142.700 47.278 C 140.985 47.168,140.800 47.061,140.800 46.178 C 140.800 45.401,140.594 45.200,139.800 45.200 C 139.000 45.200,138.800 45.000,138.800 44.200 C 138.800 43.408,138.598 43.200,137.828 43.200 C 137.124 43.200,136.820 42.951,136.728 42.300 C 136.619 41.532,136.321 41.382,134.700 41.278 C 132.985 41.168,132.800 41.061,132.800 40.178 C 132.800 39.401,132.594 39.200,131.800 39.200 C 131.000 39.200,130.800 39.000,130.800 38.200 C 130.800 37.328,130.625 37.200,129.429 37.200 C 128.443 37.200,127.837 36.919,127.271 36.200 C 126.839 35.650,126.118 35.200,125.670 35.200 C 125.130 35.200,124.813 34.897,124.728 34.300 C 124.611 33.474,124.361 33.390,121.700 33.282 C 118.919 33.170,118.800 33.125,118.800 32.182 C 118.800 31.205,118.779 31.200,114.828 31.200 C 111.013 31.200,110.851 31.164,110.728 30.300 L 110.600 29.400 86.900 29.297 L 63.200 29.194 63.200 30.197 M53.467 295.467 C 53.320 295.613,53.200 299.123,53.200 303.267 L 53.200 310.800 62.000 310.800 L 70.800 310.800 70.800 303.480 C 70.800 298.320,70.658 296.018,70.320 295.680 C 69.801 295.161,53.973 294.961,53.467 295.467 M93.800 296.214 C 93.157 297.000,92.627 297.193,91.100 297.196 C 89.341 297.200,89.200 297.274,89.200 298.200 C 89.200 299.133,89.067 299.200,87.200 299.200 C 85.333 299.200,85.200 299.267,85.200 300.200 C 85.200 301.000,85.000 301.200,84.200 301.200 C 83.405 301.200,83.200 301.401,83.200 302.182 C 83.200 302.722,82.750 303.614,82.200 304.164 C 81.398 304.966,81.200 305.562,81.200 307.182 C 81.200 309.068,81.135 309.200,80.200 309.200 L 79.200 309.200 79.200 343.000 L 79.200 376.800 88.000 376.800 L 96.800 376.800 96.800 344.800 L 96.800 312.800 113.800 312.800 L 130.800 312.800 130.800 304.000 L 130.800 295.200 112.700 295.218 L 94.600 295.237 93.800 296.214 M183.467 295.467 C 183.320 295.613,183.200 310.013,183.200 327.467 L 183.200 359.200 182.200 359.200 C 181.400 359.200,181.200 359.400,181.200 360.200 L 181.200 361.200 168.000 361.200 L 154.800 361.200 154.800 360.200 C 154.800 359.400,154.600 359.200,153.800 359.200 L 152.800 359.200 152.800 348.000 L 152.800 336.800 166.800 336.800 L 180.800 336.800 180.800 328.000 L 180.800 319.200 165.000 319.200 L 149.200 319.200 149.200 320.200 C 149.200 321.122,149.056 321.200,147.358 321.200 C 145.869 321.200,145.364 321.392,144.729 322.200 C 144.163 322.919,143.557 323.200,142.571 323.200 C 141.375 323.200,141.200 323.328,141.200 324.200 C 141.200 325.000,141.000 325.200,140.200 325.200 C 139.267 325.200,139.200 325.333,139.200 327.200 C 139.200 329.067,139.133 329.200,138.200 329.200 C 137.268 329.200,137.200 329.335,137.200 331.182 C 137.200 332.765,136.998 333.366,136.195 334.169 L 135.189 335.174 135.295 348.687 C 135.400 362.198,135.400 362.200,136.284 362.588 C 137.058 362.927,137.183 363.329,137.284 365.788 C 137.390 368.358,137.477 368.611,138.300 368.728 C 138.951 368.820,139.200 369.124,139.200 369.828 C 139.200 370.598,139.408 370.800,140.200 370.800 C 141.000 370.800,141.200 371.000,141.200 371.800 C 141.200 372.600,141.400 372.800,142.200 372.800 C 143.000 372.800,143.200 373.000,143.200 373.800 C 143.200 374.592,143.402 374.800,144.172 374.800 C 144.876 374.800,145.180 375.049,145.272 375.700 L 145.400 376.600 167.800 376.600 L 190.200 376.600 190.595 375.700 C 190.837 375.148,191.340 374.800,191.895 374.800 C 192.594 374.800,192.800 374.572,192.800 373.800 C 192.800 373.000,193.000 372.800,193.800 372.800 C 194.600 372.800,194.800 372.600,194.800 371.800 C 194.800 371.000,195.000 370.800,195.800 370.800 C 196.600 370.800,196.800 370.600,196.800 369.800 C 196.800 369.000,197.000 368.800,197.800 368.800 C 198.754 368.800,198.800 368.691,198.800 366.429 C 198.800 364.376,198.934 363.952,199.800 363.271 L 200.800 362.485 200.800 329.322 C 200.800 304.063,200.686 296.046,200.320 295.680 C 199.801 295.161,183.973 294.961,183.467 295.467 M53.200 348.000 L 53.200 376.800 62.000 376.800 L 70.800 376.800 70.800 348.000 L 70.800 319.200 62.000 319.200 L 53.200 319.200 53.200 348.000 M97.680 319.680 C 96.614 320.746,97.047 334.684,98.182 335.818 L 99.164 336.800 114.982 336.800 L 130.800 336.800 130.800 328.000 L 130.800 319.200 114.480 319.200 C 102.320 319.200,98.038 319.322,97.680 319.680 M221.200 320.200 C 221.200 321.133,221.067 321.200,219.200 321.200 C 217.345 321.200,217.200 321.271,217.200 322.178 C 217.200 323.061,217.015 323.168,215.300 323.278 C 213.679 323.382,213.381 323.532,213.272 324.300 C 213.202 324.795,212.990 325.200,212.801 325.200 C 212.020 325.200,211.200 326.546,211.200 327.829 C 211.200 329.026,211.073 329.200,210.196 329.200 L 209.192 329.200 209.296 348.700 L 209.400 368.200 210.300 368.595 C 210.852 368.837,211.200 369.340,211.200 369.895 C 211.200 370.594,211.428 370.800,212.200 370.800 C 213.000 370.800,213.200 371.000,213.200 371.800 C 213.200 372.600,213.400 372.800,214.200 372.800 C 215.000 372.800,215.200 373.000,215.200 373.800 C 215.200 374.733,215.333 374.800,217.200 374.800 C 219.069 374.800,219.200 374.866,219.200 375.804 L 219.200 376.808 236.900 376.704 L 254.600 376.600 254.710 369.892 C 254.819 363.218,254.814 363.178,253.828 362.192 L 252.836 361.200 239.987 361.200 L 227.138 361.200 225.969 360.031 L 224.800 358.862 224.800 347.831 L 224.800 336.800 225.800 336.800 C 226.600 336.800,226.800 336.600,226.800 335.800 L 226.800 334.800 240.000 334.800 L 253.200 334.800 253.200 335.800 C 253.200 336.600,253.400 336.800,254.200 336.800 C 255.664 336.800,255.760 341.065,254.300 341.272 C 253.722 341.354,253.354 341.722,253.272 342.300 L 253.144 343.200 240.172 343.200 L 227.200 343.200 227.200 351.004 L 227.200 358.809 244.100 358.704 L 261.000 358.600 261.128 357.700 C 261.238 356.922,261.495 356.800,263.020 356.800 C 264.558 356.800,264.816 356.674,265.030 355.823 C 265.179 355.228,265.613 354.798,266.138 354.723 C 266.670 354.647,267.048 354.265,267.125 353.725 C 267.202 353.180,267.579 352.802,268.122 352.725 C 268.706 352.641,269.062 352.244,269.197 351.525 C 269.309 350.934,269.805 349.988,270.300 349.422 C 271.049 348.566,271.200 347.926,271.200 345.597 C 271.200 343.129,271.288 342.800,271.950 342.800 C 272.751 342.800,273.200 341.435,273.200 339.000 C 273.200 336.589,272.749 335.200,271.968 335.200 C 271.336 335.200,271.219 334.801,271.118 332.300 C 271.012 329.691,270.915 329.388,270.149 329.279 C 269.457 329.180,269.249 328.791,269.038 327.205 C 268.824 325.588,268.627 325.231,267.890 325.126 C 267.322 325.046,266.954 324.675,266.872 324.100 C 266.778 323.437,266.477 323.200,265.730 323.200 C 265.124 323.200,264.398 322.797,263.929 322.200 C 263.284 321.380,262.794 321.200,261.214 321.200 C 259.492 321.200,259.260 321.094,259.036 320.200 L 258.785 319.200 239.992 319.200 L 221.200 319.200 221.200 320.200 M277.297 346.900 L 277.400 374.600 278.300 374.728 C 278.951 374.820,279.200 375.124,279.200 375.828 C 279.200 376.721,279.354 376.800,281.105 376.800 C 282.697 376.800,283.075 376.948,283.405 377.700 C 284.042 379.151,288.404 379.232,289.817 377.819 C 290.804 376.832,291.000 376.800,295.989 376.800 C 301.009 376.800,301.162 376.774,301.929 375.800 C 302.584 374.967,303.055 374.800,304.758 374.800 C 306.669 374.800,306.800 374.736,306.800 373.800 C 306.800 372.867,306.933 372.800,308.800 372.800 C 310.667 372.800,310.800 372.733,310.800 371.800 C 310.800 370.867,310.933 370.800,312.800 370.800 C 314.667 370.800,314.800 370.733,314.800 369.800 C 314.800 369.050,315.011 368.800,315.642 368.800 C 316.106 368.800,316.830 368.361,317.252 367.825 C 317.720 367.230,318.523 366.801,319.310 366.725 C 320.296 366.629,320.630 366.388,320.728 365.700 C 320.820 365.049,321.124 364.800,321.828 364.800 C 322.598 364.800,322.800 364.592,322.800 363.800 C 322.800 363.000,323.000 362.800,323.800 362.800 C 324.600 362.800,324.800 362.600,324.800 361.800 C 324.800 361.000,325.000 360.800,325.800 360.800 C 326.592 360.800,326.800 360.598,326.800 359.828 C 326.800 359.124,327.049 358.820,327.700 358.728 C 328.388 358.630,328.629 358.296,328.725 357.310 C 328.801 356.523,329.230 355.720,329.825 355.252 C 330.361 354.830,330.800 354.106,330.800 353.642 C 330.800 353.011,331.050 352.800,331.800 352.800 C 332.592 352.800,332.800 352.598,332.800 351.828 C 332.800 351.124,333.049 350.820,333.700 350.728 C 334.468 350.619,334.618 350.321,334.722 348.700 C 334.832 346.985,334.939 346.800,335.822 346.800 C 336.729 346.800,336.800 346.655,336.800 344.800 C 336.800 342.933,336.867 342.800,337.800 342.800 C 338.733 342.800,338.800 342.667,338.800 340.800 C 338.800 338.933,338.867 338.800,339.800 338.800 C 340.733 338.800,340.800 338.667,340.800 336.800 C 340.800 334.933,340.867 334.800,341.800 334.800 C 342.731 334.800,342.800 334.665,342.800 332.828 C 342.800 331.087,342.906 330.841,343.700 330.728 C 344.526 330.611,344.610 330.361,344.718 327.700 C 344.830 324.919,344.875 324.800,345.818 324.800 C 346.767 324.800,346.800 324.707,346.800 322.000 L 346.800 319.200 338.000 319.200 C 329.281 319.200,329.200 319.208,329.200 320.054 C 329.200 320.524,328.750 321.325,328.200 321.835 C 327.365 322.609,327.200 323.128,327.200 324.981 C 327.200 327.081,327.146 327.200,326.200 327.200 C 325.269 327.200,325.200 327.335,325.200 329.172 C 325.200 330.913,325.094 331.159,324.300 331.272 C 323.532 331.381,323.382 331.679,323.278 333.300 C 323.168 335.015,323.061 335.200,322.178 335.200 C 321.271 335.200,321.200 335.345,321.200 337.200 C 321.200 339.067,321.133 339.200,320.200 339.200 C 319.408 339.200,319.200 339.402,319.200 340.172 C 319.200 340.876,318.951 341.180,318.300 341.272 C 317.532 341.381,317.382 341.679,317.278 343.300 C 317.168 345.015,317.061 345.200,316.178 345.200 C 315.401 345.200,315.200 345.406,315.200 346.200 C 315.200 347.000,315.000 347.200,314.200 347.200 C 313.400 347.200,313.200 347.400,313.200 348.200 C 313.200 349.000,313.000 349.200,312.200 349.200 C 311.400 349.200,311.200 349.400,311.200 350.200 C 311.200 351.000,311.000 351.200,310.200 351.200 C 309.400 351.200,309.200 351.400,309.200 352.200 C 309.200 353.000,309.000 353.200,308.200 353.200 C 307.400 353.200,307.200 353.400,307.200 354.200 C 307.200 354.950,306.989 355.200,306.358 355.200 C 305.894 355.200,305.161 355.650,304.729 356.200 C 304.163 356.919,303.557 357.200,302.571 357.200 C 301.375 357.200,301.200 357.328,301.200 358.200 C 301.200 359.178,301.133 359.200,298.200 359.200 L 295.200 359.200 295.195 340.100 C 295.192 329.595,295.081 320.595,294.948 320.100 C 294.707 319.201,294.693 319.200,285.951 319.200 L 277.195 319.200 277.297 346.900 " stroke="none" fill="#fcfcfc" fill-rule="evenodd"></path><path id="path1" d="M100.408 98.590 C 100.028 99.048,99.066 99.200,96.551 99.200 C 93.243 99.200,93.200 99.213,93.200 100.200 C 93.200 101.000,93.000 101.200,92.200 101.200 C 91.408 101.200,91.200 101.402,91.200 102.172 C 91.200 102.876,90.951 103.180,90.300 103.272 L 89.400 103.400 89.293 113.292 L 89.186 123.185 80.293 123.292 C 71.412 123.400,71.400 123.401,71.272 124.300 C 71.159 125.094,70.913 125.200,69.172 125.200 C 67.335 125.200,67.200 125.269,67.200 126.200 C 67.200 127.000,67.000 127.200,66.200 127.200 C 65.328 127.200,65.200 127.375,65.200 128.571 C 65.200 129.557,64.919 130.163,64.200 130.729 C 63.236 131.487,63.200 131.681,63.200 136.176 C 63.200 140.614,63.248 140.884,64.200 141.836 C 64.750 142.386,65.200 143.278,65.200 143.818 C 65.200 144.599,65.405 144.800,66.200 144.800 C 67.000 144.800,67.200 145.000,67.200 145.800 C 67.200 146.672,67.375 146.800,68.571 146.800 C 69.557 146.800,70.163 147.081,70.729 147.800 L 71.515 148.800 80.358 148.800 L 89.200 148.800 89.200 158.800 L 89.200 168.800 90.200 168.800 C 91.000 168.800,91.200 169.000,91.200 169.800 C 91.200 170.600,91.400 170.800,92.200 170.800 C 93.000 170.800,93.200 171.000,93.200 171.800 C 93.200 172.772,93.279 172.800,96.010 172.800 C 98.639 172.800,98.844 172.864,99.200 173.800 C 99.520 174.641,99.840 174.800,101.208 174.800 C 102.412 174.800,103.097 174.539,103.836 173.800 C 104.634 173.002,105.238 172.800,106.818 172.800 C 108.665 172.800,108.800 172.732,108.800 171.800 C 108.800 171.000,109.000 170.800,109.800 170.800 C 110.600 170.800,110.800 170.600,110.800 169.800 C 110.800 169.000,111.000 168.800,111.800 168.800 L 112.800 168.800 112.800 158.800 L 112.800 148.800 121.818 148.800 L 130.836 148.800 131.836 147.800 C 132.386 147.250,133.278 146.800,133.818 146.800 C 134.599 146.800,134.800 146.595,134.800 145.800 C 134.800 145.000,135.000 144.800,135.800 144.800 C 136.600 144.800,136.800 144.600,136.800 143.800 C 136.800 143.000,137.000 142.800,137.800 142.800 L 138.800 142.800 138.800 136.208 L 138.800 129.615 137.800 129.364 C 137.082 129.184,136.800 128.843,136.800 128.157 C 136.800 127.403,136.588 127.200,135.800 127.200 C 135.000 127.200,134.800 127.000,134.800 126.200 C 134.800 125.328,134.625 125.200,133.429 125.200 C 132.443 125.200,131.837 124.919,131.271 124.200 L 130.485 123.200 121.642 123.200 L 112.800 123.200 112.800 113.200 L 112.800 103.200 111.800 103.200 C 111.000 103.200,110.800 103.000,110.800 102.200 C 110.800 101.400,110.600 101.200,109.800 101.200 C 109.000 101.200,108.800 101.000,108.800 100.200 C 108.800 99.215,108.751 99.200,105.531 99.200 C 103.163 99.200,102.077 99.032,101.589 98.590 C 100.985 98.043,100.862 98.043,100.408 98.590 " stroke="none" fill="#34cc74" fill-rule="evenodd"></path><path id="path2" d="M296.400 98.600 C 296.003 99.079,294.820 99.200,290.551 99.200 L 285.200 99.200 285.200 100.200 C 285.200 101.154,285.091 101.200,282.829 101.200 C 280.551 101.200,279.200 101.806,279.200 102.829 C 279.200 103.033,278.750 103.200,278.200 103.200 C 277.406 103.200,277.200 103.401,277.200 104.178 C 277.200 105.061,277.015 105.168,275.300 105.278 C 273.679 105.382,273.381 105.532,273.272 106.300 C 273.180 106.951,272.876 107.200,272.172 107.200 C 271.402 107.200,271.200 107.408,271.200 108.200 C 271.200 109.000,271.000 109.200,270.200 109.200 C 269.400 109.200,269.200 109.400,269.200 110.200 C 269.200 111.000,269.000 111.200,268.200 111.200 C 267.328 111.200,267.200 111.375,267.200 112.571 C 267.200 113.557,266.919 114.163,266.200 114.729 C 265.650 115.161,265.200 115.894,265.200 116.358 C 265.200 116.989,264.950 117.200,264.200 117.200 C 263.273 117.200,263.200 117.340,263.200 119.105 C 263.200 120.697,263.052 121.075,262.300 121.405 C 261.474 121.767,261.391 122.102,261.285 125.474 C 261.178 128.921,261.116 129.156,260.285 129.274 C 258.792 129.486,258.708 142.345,260.190 143.827 C 261.089 144.726,261.200 145.163,261.200 147.818 C 261.200 150.732,261.223 150.800,262.200 150.800 C 263.122 150.800,263.200 150.944,263.200 152.642 C 263.200 154.131,263.392 154.636,264.200 155.271 C 264.919 155.837,265.200 156.443,265.200 157.429 C 265.200 158.625,265.328 158.800,266.200 158.800 C 267.000 158.800,267.200 159.000,267.200 159.800 C 267.200 160.600,267.400 160.800,268.200 160.800 C 269.004 160.800,269.200 160.999,269.200 161.814 C 269.200 162.372,269.605 163.181,270.100 163.611 C 270.595 164.041,271.599 164.935,272.331 165.597 C 273.063 166.259,274.008 166.800,274.431 166.800 C 274.985 166.800,275.200 167.080,275.200 167.800 C 275.200 168.592,275.402 168.800,276.172 168.800 C 276.876 168.800,277.180 169.049,277.272 169.700 C 277.381 170.466,277.679 170.618,279.275 170.721 C 280.856 170.823,281.169 170.979,281.275 171.721 C 281.389 172.521,281.660 172.611,284.300 172.718 C 287.081 172.830,287.200 172.875,287.200 173.818 L 287.200 174.800 298.000 174.800 L 308.800 174.800 308.800 173.800 C 308.800 172.822,308.867 172.800,311.800 172.800 C 314.733 172.800,314.800 172.778,314.800 171.800 C 314.800 170.867,314.933 170.800,316.800 170.800 C 318.667 170.800,318.800 170.733,318.800 169.800 C 318.800 169.000,319.000 168.800,319.800 168.800 C 320.594 168.800,320.800 168.599,320.800 167.822 C 320.800 166.939,320.985 166.832,322.700 166.722 C 324.321 166.618,324.619 166.468,324.728 165.700 C 324.820 165.049,325.124 164.800,325.828 164.800 C 326.591 164.800,326.800 164.591,326.800 163.828 C 326.800 163.124,327.049 162.820,327.700 162.728 C 328.468 162.619,328.618 162.321,328.722 160.700 C 328.832 158.985,328.939 158.800,329.822 158.800 C 330.599 158.800,330.800 158.594,330.800 157.800 C 330.800 157.000,331.000 156.800,331.800 156.800 C 332.731 156.800,332.800 156.665,332.800 154.828 C 332.800 153.087,332.906 152.841,333.700 152.728 C 334.526 152.611,334.610 152.361,334.718 149.700 C 334.782 148.105,334.994 146.800,335.189 146.800 C 336.629 146.800,336.800 145.693,336.800 136.371 L 336.800 127.200 335.800 127.200 C 334.822 127.200,334.800 127.133,334.800 124.200 C 334.800 121.267,334.778 121.200,333.800 121.200 C 332.867 121.200,332.800 121.067,332.800 119.200 C 332.800 117.333,332.733 117.200,331.800 117.200 C 330.867 117.200,330.800 117.067,330.800 115.200 C 330.800 113.333,330.733 113.200,329.800 113.200 C 329.000 113.200,328.800 113.000,328.800 112.200 C 328.800 111.400,328.600 111.200,327.800 111.200 C 327.000 111.200,326.800 111.000,326.800 110.200 C 326.800 109.400,326.600 109.200,325.800 109.200 C 325.000 109.200,324.800 109.000,324.800 108.200 C 324.800 107.400,324.600 107.200,323.800 107.200 C 323.000 107.200,322.800 107.000,322.800 106.200 C 322.800 105.446,322.590 105.200,321.946 105.200 C 321.476 105.200,320.675 104.750,320.165 104.200 C 319.567 103.555,318.806 103.200,318.019 103.200 C 316.985 103.200,316.800 103.048,316.800 102.200 C 316.800 101.246,316.691 101.200,314.429 101.200 C 312.376 101.200,311.952 101.066,311.271 100.200 C 310.505 99.225,310.355 99.200,305.291 99.200 C 301.163 99.200,299.996 99.077,299.600 98.600 C 299.326 98.270,298.606 98.000,298.000 98.000 C 297.394 98.000,296.674 98.270,296.400 98.600 M299.272 123.700 C 299.389 124.526,299.639 124.610,302.300 124.718 C 305.081 124.830,305.200 124.875,305.200 125.818 C 305.200 126.599,305.405 126.800,306.200 126.800 C 307.000 126.800,307.200 127.000,307.200 127.800 C 307.200 128.600,307.400 128.800,308.200 128.800 C 309.133 128.800,309.200 128.933,309.200 130.800 C 309.200 132.667,309.267 132.800,310.200 132.800 L 311.200 132.800 311.200 137.000 L 311.200 141.200 310.200 141.200 C 309.405 141.200,309.200 141.401,309.200 142.182 C 309.200 142.722,308.795 143.600,308.300 144.133 C 307.805 144.666,307.077 145.575,306.681 146.151 C 306.140 146.942,305.622 147.200,304.581 147.200 C 303.375 147.200,303.200 147.326,303.200 148.200 L 303.200 149.200 298.228 149.200 C 293.376 149.200,293.253 149.178,293.128 148.300 C 293.036 147.656,292.688 147.364,291.900 147.273 C 291.118 147.183,290.800 146.921,290.800 146.364 C 290.800 145.896,290.397 145.427,289.800 145.200 C 289.188 144.967,288.800 144.506,288.800 144.010 C 288.800 143.483,288.536 143.200,288.045 143.200 C 287.455 143.200,287.231 142.798,287.014 141.354 C 286.812 140.010,286.529 139.454,285.969 139.308 C 284.697 138.975,284.818 132.910,286.100 132.728 C 286.868 132.619,287.018 132.321,287.122 130.700 C 287.232 128.985,287.339 128.800,288.222 128.800 C 288.999 128.800,289.200 128.594,289.200 127.800 C 289.200 126.995,289.399 126.800,290.219 126.800 C 290.792 126.800,291.644 126.362,292.165 125.800 C 292.897 125.010,293.482 124.800,294.946 124.800 C 296.477 124.800,296.800 124.672,296.800 124.067 C 296.800 122.509,299.056 122.175,299.272 123.700 M131.714 147.842 C 131.227 148.369,130.989 148.800,131.186 148.800 C 131.656 148.800,132.800 147.645,132.800 147.171 C 132.800 146.688,132.758 146.713,131.714 147.842 M97.676 173.228 C 97.768 173.505,98.242 173.996,98.729 174.319 C 99.576 174.881,99.599 174.866,99.262 173.953 C 98.904 172.984,97.359 172.277,97.676 173.228 M103.714 173.842 C 103.227 174.369,102.989 174.800,103.186 174.800 C 103.656 174.800,104.800 173.645,104.800 173.171 C 104.800 172.688,104.758 172.713,103.714 173.842 M217.600 375.151 C 217.600 375.655,218.774 376.559,219.059 376.274 C 219.469 375.865,218.857 374.800,218.213 374.800 C 217.876 374.800,217.600 374.958,217.600 375.151 " stroke="none" fill="#cc3434" fill-rule="evenodd"></path><path id="path3" d="" stroke="none" fill="#c8c8100" fill-rule="evenodd"></path><path id="path4" d="" stroke="none" fill="#c8c8100" fill-rule="evenodd"></path></g></svg>