<svg id="svg" version="1.1" xmlns="http://www.w3.org/2000/svg" xmlns:xlink="http://www.w3.org/1999/xlink" width="400" height="400" viewBox="0, 0, 400,400"><g id="svgg"><path id="path0" d="M193.200 12.200 C 193.200 13.044,193.013 13.200,192.000 13.200 C 190.460 13.200,189.200 14.460,189.200 16.000 C 189.200 17.013,189.044 17.200,188.200 17.200 L 187.200 17.200 187.200 46.000 L 187.200 74.800 188.200 74.800 C 189.000 74.800,189.200 75.000,189.200 75.800 C 189.200 76.600,189.400 76.800,190.200 76.800 C 191.000 76.800,191.200 77.000,191.200 77.800 C 191.200 78.595,191.401 78.800,192.182 78.800 C 192.722 78.800,193.614 79.250,194.164 79.800 L 195.164 80.800 223.982 80.800 L 252.800 80.800 252.800 79.800 L 252.800 78.800 256.800 78.800 L 260.800 78.800 260.800 77.800 C 260.800 76.867,260.934 76.800,262.792 76.800 C 264.573 76.800,264.811 76.696,265.030 75.821 C 265.235 75.008,265.557 74.822,266.938 74.721 C 268.298 74.622,268.623 74.441,268.725 73.724 C 268.812 73.111,269.172 72.811,269.925 72.724 C 270.687 72.636,271.037 72.338,271.128 71.700 C 271.216 71.079,271.528 70.800,272.133 70.800 C 272.659 70.800,273.168 70.440,273.405 69.900 C 273.693 69.245,274.198 68.967,275.262 68.878 C 276.430 68.781,276.774 68.559,276.970 67.778 C 277.148 67.069,277.489 66.800,278.208 66.800 C 278.999 66.800,279.200 66.598,279.200 65.800 C 279.200 64.961,279.389 64.800,280.371 64.800 C 281.505 64.800,282.800 63.932,282.800 63.171 C 282.800 62.967,283.247 62.800,283.792 62.800 C 284.517 62.800,284.852 62.531,285.036 61.800 C 285.216 61.082,285.557 60.800,286.243 60.800 C 286.997 60.800,287.200 60.588,287.200 59.800 C 287.200 58.869,287.335 58.800,289.171 58.800 C 290.797 58.800,291.280 58.625,291.929 57.800 L 292.715 56.800 313.958 56.800 L 335.200 56.800 335.200 57.800 C 335.200 58.733,335.333 58.800,337.200 58.800 C 338.300 58.800,339.200 58.967,339.200 59.171 C 339.200 59.978,340.527 60.800,341.829 60.800 C 343.025 60.800,343.200 60.928,343.200 61.800 C 343.200 62.600,343.400 62.800,344.200 62.800 C 345.000 62.800,345.200 63.000,345.200 63.800 C 345.200 64.594,345.401 64.800,346.178 64.800 C 347.061 64.800,347.168 64.985,347.278 66.700 C 347.382 68.321,347.532 68.619,348.300 68.728 C 349.082 68.839,349.200 69.093,349.200 70.670 C 349.200 72.129,349.396 72.639,350.200 73.271 L 351.200 74.058 351.200 159.629 L 351.200 245.200 350.200 245.200 C 349.222 245.200,349.200 245.267,349.200 248.200 C 349.200 251.133,349.178 251.200,348.200 251.200 C 347.408 251.200,347.200 251.402,347.200 252.172 C 347.200 252.876,346.951 253.180,346.300 253.272 C 345.737 253.352,345.354 253.721,345.278 254.259 C 345.210 254.732,344.792 255.213,344.348 255.330 C 343.904 255.446,343.443 255.914,343.324 256.370 C 343.181 256.917,342.782 257.200,342.153 257.200 C 341.409 257.200,341.200 257.414,341.200 258.178 C 341.200 259.061,341.015 259.168,339.300 259.278 C 337.679 259.382,337.381 259.532,337.272 260.300 L 337.144 261.200 319.216 261.200 L 301.287 261.200 301.036 260.200 C 300.815 259.322,300.569 259.200,299.020 259.200 C 297.495 259.200,297.238 259.078,297.128 258.300 C 297.047 257.730,296.679 257.354,296.125 257.275 C 295.579 257.198,295.202 256.821,295.125 256.275 C 295.046 255.721,294.670 255.353,294.100 255.272 C 293.449 255.180,293.200 254.876,293.200 254.172 C 293.200 253.408,292.991 253.200,292.222 253.200 C 291.339 253.200,291.232 253.015,291.122 251.300 C 291.018 249.679,290.868 249.381,290.100 249.272 C 289.347 249.165,289.200 248.896,289.200 247.622 C 289.200 245.118,288.737 243.509,287.960 243.305 C 287.422 243.165,287.210 242.648,287.120 241.259 C 287.018 239.680,286.865 239.381,286.100 239.272 C 285.354 239.166,285.199 238.893,285.196 237.672 C 285.187 234.812,284.745 233.200,283.970 233.200 C 283.388 233.200,283.220 232.824,283.122 231.300 C 283.018 229.679,282.868 229.381,282.100 229.272 C 281.326 229.162,281.200 228.904,281.200 227.422 C 281.200 224.576,280.793 223.200,279.950 223.200 C 279.331 223.200,279.200 222.894,279.200 221.446 C 279.200 220.016,279.015 219.571,278.200 219.037 C 277.419 218.525,277.200 218.043,277.200 216.837 C 277.200 215.611,277.029 215.249,276.370 215.076 C 275.914 214.957,275.447 214.503,275.333 214.067 C 275.219 213.631,274.769 213.181,274.333 213.067 C 273.897 212.953,273.443 212.486,273.324 212.030 C 273.168 211.436,272.784 211.200,271.972 211.200 C 271.294 211.200,270.433 210.797,269.836 210.200 C 268.909 209.273,268.558 209.200,265.018 209.200 C 261.212 209.200,261.200 209.203,261.200 210.200 C 261.200 211.133,261.067 211.200,259.200 211.200 C 257.333 211.200,257.200 211.267,257.200 212.200 C 257.200 213.000,257.000 213.200,256.200 213.200 C 255.400 213.200,255.200 213.400,255.200 214.200 C 255.200 215.000,255.000 215.200,254.200 215.200 L 253.200 215.200 253.200 222.219 C 253.200 229.192,253.207 229.244,254.200 230.165 C 254.990 230.897,255.200 231.482,255.200 232.946 C 255.200 234.657,255.277 234.800,256.200 234.800 C 257.154 234.800,257.200 234.909,257.200 237.171 C 257.200 239.449,257.806 240.800,258.829 240.800 C 259.033 240.800,259.200 241.700,259.200 242.800 C 259.200 244.657,259.270 244.800,260.182 244.800 C 261.115 244.800,261.169 244.932,261.282 247.500 C 261.385 249.857,261.514 250.250,262.300 250.595 C 263.052 250.925,263.200 251.303,263.200 252.895 C 263.200 254.651,263.277 254.800,264.182 254.800 C 265.125 254.800,265.170 254.919,265.282 257.700 C 265.390 260.361,265.474 260.611,266.300 260.728 C 267.094 260.841,267.200 261.087,267.200 262.828 C 267.200 264.665,267.269 264.800,268.200 264.800 C 269.005 264.800,269.200 264.999,269.200 265.818 C 269.200 266.378,269.650 267.286,270.200 267.836 C 270.750 268.386,271.200 269.278,271.200 269.818 C 271.200 270.599,271.405 270.800,272.200 270.800 C 273.000 270.800,273.200 271.000,273.200 271.800 C 273.200 272.600,273.400 272.800,274.200 272.800 C 275.000 272.800,275.200 273.000,275.200 273.800 C 275.200 274.600,275.400 274.800,276.200 274.800 C 277.000 274.800,277.200 275.000,277.200 275.800 C 277.200 276.600,277.400 276.800,278.200 276.800 C 279.000 276.800,279.200 277.000,279.200 277.800 C 279.200 278.672,279.375 278.800,280.571 278.800 C 281.557 278.800,282.163 279.081,282.729 279.800 C 283.161 280.350,283.882 280.800,284.330 280.800 C 284.870 280.800,285.187 281.103,285.272 281.700 C 285.380 282.456,285.685 282.620,287.179 282.727 C 288.442 282.817,289.220 283.136,289.860 283.827 C 290.671 284.702,291.085 284.800,293.981 284.800 C 297.148 284.800,297.200 284.816,297.200 285.800 L 297.200 286.800 319.371 286.800 C 342.520 286.800,342.800 286.781,342.800 285.171 C 342.800 284.967,344.150 284.800,345.800 284.800 C 348.733 284.800,348.800 284.778,348.800 283.800 C 348.800 282.867,348.933 282.800,350.800 282.800 C 352.667 282.800,352.800 282.733,352.800 281.800 C 352.800 280.867,352.933 280.800,354.800 280.800 C 356.667 280.800,356.800 280.733,356.800 279.800 C 356.800 279.000,357.000 278.800,357.800 278.800 C 358.600 278.800,358.800 278.600,358.800 277.800 C 358.800 277.080,359.015 276.800,359.569 276.800 C 359.992 276.800,360.937 276.259,361.669 275.597 C 362.401 274.935,363.405 274.041,363.900 273.611 C 364.395 273.181,364.800 272.372,364.800 271.814 C 364.800 270.999,364.996 270.800,365.800 270.800 C 366.600 270.800,366.800 270.600,366.800 269.800 C 366.800 269.000,367.000 268.800,367.800 268.800 C 368.572 268.800,368.800 268.594,368.800 267.895 C 368.800 267.340,369.148 266.837,369.700 266.595 C 370.395 266.290,370.628 265.813,370.723 264.500 C 370.832 262.998,370.960 262.800,371.823 262.800 C 372.772 262.800,372.800 262.715,372.800 259.800 C 372.800 256.867,372.822 256.800,373.800 256.800 C 374.800 256.800,374.800 256.799,374.800 252.818 C 374.800 249.103,374.867 248.769,375.801 247.835 L 376.802 246.835 376.701 159.117 L 376.600 71.400 375.700 71.272 C 374.822 71.147,374.800 71.024,374.800 66.172 L 374.800 61.200 373.800 61.200 C 372.867 61.200,372.800 61.067,372.800 59.200 C 372.800 57.333,372.733 57.200,371.800 57.200 C 370.867 57.200,370.800 57.067,370.800 55.200 C 370.800 53.345,370.729 53.200,369.822 53.200 C 368.939 53.200,368.832 53.015,368.722 51.300 C 368.618 49.679,368.468 49.381,367.700 49.272 C 367.049 49.180,366.800 48.876,366.800 48.172 C 366.800 47.402,366.592 47.200,365.800 47.200 C 365.000 47.200,364.800 47.000,364.800 46.200 C 364.800 45.400,364.600 45.200,363.800 45.200 C 363.000 45.200,362.800 45.000,362.800 44.200 C 362.800 43.400,362.600 43.200,361.800 43.200 C 361.000 43.200,360.800 43.000,360.800 42.200 C 360.800 41.408,360.598 41.200,359.828 41.200 C 359.124 41.200,358.820 40.951,358.728 40.300 C 358.619 39.532,358.321 39.382,356.700 39.278 C 354.985 39.168,354.800 39.061,354.800 38.178 C 354.800 37.271,354.655 37.200,352.800 37.200 C 350.933 37.200,350.800 37.133,350.800 36.200 C 350.800 35.273,350.660 35.200,348.895 35.200 C 347.303 35.200,346.925 35.052,346.595 34.300 C 346.216 33.436,345.976 33.396,340.526 33.289 C 335.007 33.181,334.849 33.154,334.726 32.289 L 334.600 31.400 313.000 31.400 L 291.400 31.400 291.272 32.300 C 291.147 33.178,291.024 33.200,286.172 33.200 L 281.200 33.200 281.200 34.200 C 281.200 35.146,281.081 35.200,278.981 35.200 C 277.128 35.200,276.609 35.365,275.835 36.200 C 275.325 36.750,274.524 37.200,274.054 37.200 C 273.410 37.200,273.200 37.446,273.200 38.200 C 273.200 39.133,273.067 39.200,271.200 39.200 C 269.333 39.200,269.200 39.267,269.200 40.200 C 269.200 41.000,269.000 41.200,268.200 41.200 C 267.400 41.200,267.200 41.400,267.200 42.200 C 267.200 43.005,267.001 43.200,266.182 43.200 C 265.622 43.200,264.714 43.650,264.164 44.200 C 263.614 44.750,262.722 45.200,262.182 45.200 C 261.401 45.200,261.200 45.405,261.200 46.200 C 261.200 47.000,261.000 47.200,260.200 47.200 C 259.406 47.200,259.200 47.402,259.200 48.177 C 259.200 49.040,259.002 49.168,257.500 49.277 C 256.187 49.372,255.710 49.605,255.405 50.300 C 255.163 50.852,254.660 51.200,254.105 51.200 C 253.412 51.200,253.200 51.429,253.200 52.178 C 253.200 53.061,253.015 53.168,251.300 53.278 C 249.679 53.382,249.381 53.532,249.272 54.300 L 249.144 55.200 230.972 55.200 L 212.800 55.200 212.800 37.981 L 212.800 20.762 211.800 19.835 C 211.010 19.103,210.800 18.518,210.800 17.054 C 210.800 15.343,210.723 15.200,209.800 15.200 C 209.000 15.200,208.800 15.000,208.800 14.200 C 208.800 13.267,208.667 13.200,206.800 13.200 C 204.933 13.200,204.800 13.133,204.800 12.200 L 204.800 11.200 199.000 11.200 L 193.200 11.200 193.200 12.200 M63.200 30.197 L 63.200 31.200 58.200 31.200 L 53.200 31.200 53.200 32.200 C 53.200 33.133,53.067 33.200,51.200 33.200 C 49.333 33.200,49.200 33.267,49.200 34.200 C 49.200 35.133,49.067 35.200,47.200 35.200 C 45.333 35.200,45.200 35.267,45.200 36.200 C 45.200 37.133,45.067 37.200,43.200 37.200 C 41.333 37.200,41.200 37.267,41.200 38.200 C 41.200 39.000,41.000 39.200,40.200 39.200 C 39.400 39.200,39.200 39.400,39.200 40.200 C 39.200 41.000,39.000 41.200,38.200 41.200 C 37.400 41.200,37.200 41.400,37.200 42.200 C 37.200 43.000,37.000 43.200,36.200 43.200 C 35.400 43.200,35.200 43.400,35.200 44.200 C 35.200 45.000,35.000 45.200,34.200 45.200 C 33.400 45.200,33.200 45.400,33.200 46.200 C 33.200 47.000,33.000 47.200,32.200 47.200 C 31.267 47.200,31.200 47.333,31.200 49.200 C 31.200 51.067,31.133 51.200,30.200 51.200 C 29.267 51.200,29.200 51.333,29.200 53.200 C 29.200 55.067,29.133 55.200,28.200 55.200 C 27.267 55.200,27.200 55.333,27.200 57.200 C 27.200 59.067,27.133 59.200,26.200 59.200 L 25.200 59.200 25.200 64.176 C 25.200 67.216,25.037 69.254,24.781 69.412 C 24.490 69.591,24.496 69.834,24.800 70.200 C 25.080 70.537,25.097 70.817,24.847 70.971 C 24.632 71.104,24.340 71.027,24.200 70.800 C 23.303 69.348,23.213 77.153,23.204 157.659 L 23.193 244.479 24.197 245.269 C 25.158 246.025,25.200 246.239,25.200 250.429 L 25.200 254.800 26.182 254.800 C 27.125 254.800,27.170 254.919,27.282 257.700 C 27.390 260.361,27.474 260.611,28.300 260.728 C 29.003 260.828,29.200 261.116,29.200 262.047 C 29.200 262.804,29.565 263.576,30.200 264.165 C 30.750 264.675,31.200 265.476,31.200 265.946 C 31.200 266.590,31.446 266.800,32.200 266.800 C 33.000 266.800,33.200 267.000,33.200 267.800 C 33.200 268.600,33.400 268.800,34.200 268.800 C 35.000 268.800,35.200 269.000,35.200 269.800 C 35.200 270.600,35.400 270.800,36.200 270.800 C 37.000 270.800,37.200 271.000,37.200 271.800 C 37.200 272.600,37.400 272.800,38.200 272.800 C 39.000 272.800,39.200 273.000,39.200 273.800 C 39.200 274.600,39.400 274.800,40.200 274.800 C 41.000 274.800,41.200 275.000,41.200 275.800 C 41.200 276.592,41.402 276.800,42.172 276.800 C 42.876 276.800,43.180 277.049,43.272 277.700 C 43.381 278.468,43.679 278.618,45.300 278.722 C 47.015 278.832,47.200 278.939,47.200 279.822 C 47.200 280.727,47.347 280.800,49.172 280.800 C 50.913 280.800,51.159 280.906,51.272 281.700 C 51.393 282.554,51.600 282.606,55.300 282.714 C 59.151 282.828,59.200 282.841,59.200 283.818 L 59.200 284.807 80.900 284.703 L 102.600 284.600 102.728 283.700 C 102.847 282.859,103.050 282.800,105.828 282.800 C 108.717 282.800,108.800 282.772,108.800 281.818 C 108.800 280.885,108.932 280.831,111.500 280.718 C 113.857 280.615,114.250 280.486,114.595 279.700 C 114.837 279.148,115.340 278.800,115.895 278.800 C 116.594 278.800,116.800 278.572,116.800 277.800 C 116.800 276.867,116.933 276.800,118.800 276.800 C 120.667 276.800,120.800 276.733,120.800 275.800 C 120.800 275.000,121.000 274.800,121.800 274.800 C 122.600 274.800,122.800 274.600,122.800 273.800 C 122.800 273.000,123.000 272.800,123.800 272.800 C 124.600 272.800,124.800 272.600,124.800 271.800 C 124.800 271.000,125.000 270.800,125.800 270.800 C 126.600 270.800,126.800 270.600,126.800 269.800 C 126.800 269.000,127.000 268.800,127.800 268.800 C 128.733 268.800,128.800 268.667,128.800 266.800 C 128.800 264.933,128.867 264.800,129.800 264.800 C 130.600 264.800,130.800 264.600,130.800 263.800 C 130.800 263.000,131.000 262.800,131.800 262.800 C 132.727 262.800,132.800 262.660,132.800 260.895 C 132.800 259.303,132.948 258.925,133.700 258.595 C 134.486 258.250,134.615 257.857,134.718 255.500 C 134.831 252.932,134.885 252.800,135.818 252.800 C 136.730 252.800,136.800 252.657,136.800 250.800 C 136.800 249.700,136.967 248.800,137.171 248.800 C 138.194 248.800,138.800 247.449,138.800 245.171 C 138.800 242.909,138.846 242.800,139.800 242.800 C 140.723 242.800,140.800 242.657,140.800 240.946 C 140.800 239.482,141.010 238.897,141.800 238.165 C 142.635 237.391,142.800 236.872,142.800 235.019 C 142.800 232.919,142.854 232.800,143.800 232.800 C 144.732 232.800,144.800 232.665,144.800 230.818 C 144.800 229.238,145.002 228.634,145.800 227.836 C 146.602 227.034,146.800 226.438,146.800 224.818 C 146.800 222.932,146.865 222.800,147.800 222.800 C 148.733 222.800,148.800 222.667,148.800 220.800 C 148.800 218.933,148.867 218.800,149.800 218.800 C 150.600 218.800,150.800 218.600,150.800 217.800 C 150.800 217.000,151.000 216.800,151.800 216.800 C 152.600 216.800,152.800 216.600,152.800 215.800 C 152.800 215.000,153.000 214.800,153.800 214.800 C 154.600 214.800,154.800 214.600,154.800 213.800 C 154.800 213.000,155.000 212.800,155.800 212.800 C 156.600 212.800,156.800 212.600,156.800 211.800 C 156.800 211.000,157.000 210.800,157.800 210.800 C 158.600 210.800,158.800 210.600,158.800 209.800 C 158.800 208.867,158.933 208.800,160.800 208.800 C 162.667 208.800,162.800 208.733,162.800 207.800 C 162.800 206.854,162.919 206.800,165.019 206.800 C 166.872 206.800,167.391 206.635,168.165 205.800 L 169.092 204.800 195.946 204.800 L 222.800 204.800 222.800 203.800 C 222.800 202.867,222.933 202.800,224.800 202.800 C 226.667 202.800,226.800 202.733,226.800 201.800 C 226.800 201.000,227.000 200.800,227.800 200.800 C 228.600 200.800,228.800 200.600,228.800 199.800 C 228.800 198.998,228.999 198.800,229.809 198.800 L 230.818 198.800 230.709 191.300 C 230.602 183.955,230.581 183.792,229.700 183.405 C 229.148 183.163,228.800 182.660,228.800 182.105 C 228.800 181.286,228.611 181.200,226.800 181.200 C 224.933 181.200,224.800 181.133,224.800 180.200 L 224.800 179.200 195.000 179.200 L 165.200 179.200 165.200 180.200 L 165.200 181.200 161.200 181.200 C 157.219 181.200,157.200 181.205,157.200 182.182 C 157.200 183.125,157.081 183.170,154.300 183.282 C 151.660 183.389,151.389 183.479,151.275 184.279 C 151.169 185.021,150.856 185.177,149.275 185.279 C 147.679 185.382,147.381 185.534,147.272 186.300 C 147.180 186.951,146.876 187.200,146.172 187.200 C 145.402 187.200,145.200 187.408,145.200 188.200 C 145.200 189.133,145.067 189.200,143.200 189.200 C 141.333 189.200,141.200 189.267,141.200 190.200 C 141.200 191.000,141.000 191.200,140.200 191.200 C 139.400 191.200,139.200 191.400,139.200 192.200 C 139.200 193.000,139.000 193.200,138.200 193.200 C 137.400 193.200,137.200 193.400,137.200 194.200 C 137.200 195.000,137.000 195.200,136.200 195.200 C 135.400 195.200,135.200 195.400,135.200 196.200 C 135.200 197.000,135.000 197.200,134.200 197.200 C 133.400 197.200,133.200 197.400,133.200 198.200 C 133.200 199.000,133.000 199.200,132.200 199.200 C 131.400 199.200,131.200 199.400,131.200 200.200 C 131.200 201.000,131.000 201.200,130.200 201.200 C 129.328 201.200,129.200 201.375,129.200 202.571 C 129.200 203.557,128.919 204.163,128.200 204.729 C 127.650 205.161,127.200 205.894,127.200 206.358 C 127.200 206.989,126.950 207.200,126.200 207.200 C 125.267 207.200,125.200 207.333,125.200 209.200 C 125.200 211.067,125.133 211.200,124.200 211.200 C 123.268 211.200,123.200 211.335,123.200 213.182 C 123.200 214.762,122.998 215.366,122.200 216.164 C 121.398 216.966,121.200 217.562,121.200 219.182 C 121.200 221.068,121.135 221.200,120.200 221.200 C 119.246 221.200,119.200 221.309,119.200 223.571 C 119.200 225.624,119.066 226.048,118.200 226.729 C 117.392 227.364,117.200 227.869,117.200 229.358 C 117.200 231.056,117.122 231.200,116.200 231.200 C 115.222 231.200,115.200 231.267,115.200 234.200 C 115.200 237.133,115.178 237.200,114.200 237.200 C 113.267 237.200,113.200 237.333,113.200 239.200 C 113.200 241.067,113.133 241.200,112.200 241.200 C 111.222 241.200,111.200 241.267,111.200 244.200 C 111.200 247.133,111.178 247.200,110.200 247.200 C 109.267 247.200,109.200 247.333,109.200 249.200 C 109.200 251.067,109.133 251.200,108.200 251.200 C 107.400 251.200,107.200 251.400,107.200 252.200 C 107.200 253.000,107.000 253.200,106.200 253.200 C 105.400 253.200,105.200 253.400,105.200 254.200 C 105.200 255.000,105.000 255.200,104.200 255.200 C 103.400 255.200,103.200 255.400,103.200 256.200 C 103.200 257.133,103.067 257.200,101.200 257.200 C 99.333 257.200,99.200 257.267,99.200 258.200 L 99.200 259.200 81.000 259.200 L 62.800 259.200 62.800 258.200 C 62.800 257.267,62.667 257.200,60.800 257.200 C 58.933 257.200,58.800 257.133,58.800 256.200 C 58.800 255.408,58.598 255.200,57.828 255.200 C 57.124 255.200,56.820 254.951,56.728 254.300 C 56.646 253.722,56.278 253.354,55.700 253.272 C 55.049 253.180,54.800 252.876,54.800 252.172 C 54.800 251.402,54.592 251.200,53.800 251.200 C 53.000 251.200,52.800 251.000,52.800 250.200 C 52.800 249.400,52.600 249.200,51.800 249.200 C 50.822 249.200,50.800 249.133,50.800 246.200 C 50.800 243.267,50.778 243.200,49.800 243.200 L 48.800 243.200 48.800 157.629 L 48.800 72.058 49.800 71.271 C 50.594 70.647,50.800 70.125,50.800 68.737 C 50.800 67.309,50.964 66.918,51.700 66.595 C 52.395 66.290,52.628 65.813,52.723 64.500 C 52.832 62.998,52.960 62.800,53.823 62.800 C 54.591 62.800,54.800 62.592,54.800 61.828 C 54.800 61.124,55.049 60.820,55.700 60.728 C 56.278 60.646,56.646 60.278,56.728 59.700 C 56.813 59.103,57.130 58.800,57.670 58.800 C 58.118 58.800,58.832 58.359,59.256 57.820 C 59.887 57.018,60.444 56.817,62.314 56.720 C 64.337 56.614,64.615 56.497,64.728 55.700 L 64.856 54.800 87.028 54.800 L 109.200 54.800 109.200 55.800 C 109.200 56.733,109.333 56.800,111.200 56.800 C 113.067 56.800,113.200 56.867,113.200 57.800 C 113.200 58.600,113.400 58.800,114.200 58.800 C 115.000 58.800,115.200 59.000,115.200 59.800 C 115.200 60.672,115.375 60.800,116.571 60.800 C 117.557 60.800,118.163 61.081,118.729 61.800 C 119.161 62.350,119.894 62.800,120.358 62.800 C 120.989 62.800,121.200 63.050,121.200 63.800 C 121.200 64.600,121.400 64.800,122.200 64.800 C 123.000 64.800,123.200 65.000,123.200 65.800 C 123.200 66.733,123.333 66.800,125.200 66.800 C 127.067 66.800,127.200 66.867,127.200 67.800 C 127.200 68.600,127.400 68.800,128.200 68.800 C 129.000 68.800,129.200 69.000,129.200 69.800 C 129.200 70.592,129.402 70.800,130.172 70.800 C 130.876 70.800,131.180 71.049,131.272 71.700 C 131.381 72.468,131.679 72.618,133.300 72.722 C 135.015 72.832,135.200 72.939,135.200 73.822 C 135.200 74.599,135.406 74.800,136.200 74.800 C 137.000 74.800,137.200 75.000,137.200 75.800 C 137.200 76.733,137.333 76.800,139.200 76.800 C 141.067 76.800,141.200 76.867,141.200 77.800 L 141.200 78.800 146.000 78.800 L 150.800 78.800 150.800 77.800 C 150.800 76.867,150.933 76.800,152.800 76.800 C 154.667 76.800,154.800 76.733,154.800 75.800 C 154.800 75.000,155.000 74.800,155.800 74.800 C 156.733 74.800,156.800 74.667,156.800 72.800 C 156.800 70.933,156.867 70.800,157.800 70.800 L 158.800 70.800 158.800 65.781 C 158.800 60.941,158.764 60.729,157.800 59.835 C 157.250 59.325,156.800 58.524,156.800 58.054 C 156.800 57.410,156.554 57.200,155.800 57.200 C 155.000 57.200,154.800 57.000,154.800 56.200 C 154.800 55.400,154.600 55.200,153.800 55.200 C 153.000 55.200,152.800 55.000,152.800 54.200 C 152.800 53.328,152.625 53.200,151.429 53.200 C 150.443 53.200,149.837 52.919,149.271 52.200 C 148.839 51.650,148.106 51.200,147.642 51.200 C 147.011 51.200,146.800 50.950,146.800 50.200 C 146.800 49.408,146.598 49.200,145.828 49.200 C 145.124 49.200,144.820 48.951,144.728 48.300 C 144.619 47.532,144.321 47.382,142.700 47.278 C 140.985 47.168,140.800 47.061,140.800 46.178 C 140.800 45.401,140.594 45.200,139.800 45.200 C 139.000 45.200,138.800 45.000,138.800 44.200 C 138.800 43.408,138.598 43.200,137.828 43.200 C 137.124 43.200,136.820 42.951,136.728 42.300 C 136.619 41.532,136.321 41.382,134.700 41.278 C 132.985 41.168,132.800 41.061,132.800 40.178 C 132.800 39.401,132.594 39.200,131.800 39.200 C 131.000 39.200,130.800 39.000,130.800 38.200 C 130.800 37.328,130.625 37.200,129.429 37.200 C 128.443 37.200,127.837 36.919,127.271 36.200 C 126.839 35.650,126.118 35.200,125.670 35.200 C 125.130 35.200,124.813 34.897,124.728 34.300 C 124.611 33.474,124.361 33.390,121.700 33.282 C 118.919 33.170,118.800 33.125,118.800 32.182 C 118.800 31.205,118.779 31.200,114.828 31.200 C 111.013 31.200,110.851 31.164,110.728 30.300 L 110.600 29.400 86.900 29.297 L 63.200 29.194 63.200 30.197 M55.200 300.200 C 55.200 301.133,55.067 301.200,53.200 301.200 C 51.234 301.200,50.925 301.457,51.153 302.900 C 51.179 303.065,51.065 303.179,50.900 303.153 C 48.792 302.820,47.200 303.261,47.200 304.178 C 47.200 305.061,47.015 305.168,45.300 305.278 C 43.696 305.381,43.381 305.536,43.275 306.275 C 43.198 306.821,42.821 307.198,42.275 307.275 C 41.718 307.355,41.353 307.731,41.271 308.311 C 41.200 308.812,40.705 309.659,40.171 310.193 C 39.637 310.727,39.200 311.622,39.200 312.182 C 39.200 313.001,39.005 313.200,38.200 313.200 C 37.267 313.200,37.200 313.333,37.200 315.200 C 37.200 317.067,37.133 317.200,36.200 317.200 L 35.200 317.200 35.200 321.200 L 35.200 325.200 34.200 325.200 L 33.200 325.200 33.200 338.000 L 33.200 350.800 34.200 350.800 L 35.200 350.800 35.200 354.800 L 35.200 358.800 36.200 358.800 C 37.133 358.800,37.200 358.933,37.200 360.800 C 37.200 362.667,37.267 362.800,38.200 362.800 C 39.000 362.800,39.200 363.000,39.200 363.800 C 39.200 364.594,39.402 364.800,40.177 364.800 C 41.040 364.800,41.168 364.998,41.277 366.500 C 41.372 367.813,41.605 368.290,42.300 368.595 C 42.795 368.812,43.200 369.114,43.200 369.266 C 43.200 369.986,44.594 370.800,45.829 370.800 C 47.025 370.800,47.200 370.928,47.200 371.800 C 47.200 372.554,47.410 372.800,48.054 372.800 C 48.524 372.800,49.325 373.250,49.835 373.800 C 50.609 374.635,51.128 374.800,52.981 374.800 C 55.081 374.800,55.200 374.854,55.200 375.800 L 55.200 376.800 67.200 376.800 L 79.200 376.800 79.200 377.800 C 79.200 378.600,79.400 378.800,80.200 378.800 C 81.000 378.800,81.200 379.000,81.200 379.800 C 81.200 380.600,81.400 380.800,82.200 380.800 C 83.000 380.800,83.200 381.000,83.200 381.800 C 83.200 382.592,83.402 382.800,84.172 382.800 C 84.876 382.800,85.180 383.049,85.272 383.700 C 85.381 384.468,85.679 384.618,87.300 384.722 C 89.015 384.832,89.200 384.939,89.200 385.822 L 89.200 386.800 101.000 386.800 L 112.800 386.800 112.800 385.000 C 112.800 383.347,112.719 383.200,111.800 383.200 C 111.000 383.200,110.800 383.000,110.800 382.200 C 110.800 381.428,110.594 381.200,109.895 381.200 C 109.340 381.200,108.837 380.852,108.595 380.300 C 108.290 379.605,107.813 379.372,106.500 379.277 C 104.998 379.168,104.800 379.040,104.800 378.177 C 104.800 377.402,104.594 377.200,103.800 377.200 C 103.000 377.200,102.800 377.000,102.800 376.200 C 102.800 375.400,102.600 375.200,101.800 375.200 C 100.956 375.200,100.800 375.013,100.800 374.000 C 100.800 372.987,100.956 372.800,101.800 372.800 C 102.594 372.800,102.800 372.599,102.800 371.822 C 102.800 370.939,102.985 370.832,104.700 370.722 C 106.321 370.618,106.619 370.468,106.728 369.700 C 106.820 369.049,107.124 368.800,107.828 368.800 C 108.598 368.800,108.800 368.592,108.800 367.800 C 108.800 367.250,108.967 366.800,109.171 366.800 C 109.978 366.800,110.800 365.473,110.800 364.171 C 110.800 362.975,110.928 362.800,111.800 362.800 C 112.733 362.800,112.800 362.667,112.800 360.800 C 112.800 358.933,112.867 358.800,113.800 358.800 L 114.800 358.800 114.800 354.600 C 114.800 352.290,114.935 350.421,115.100 350.447 C 116.861 350.725,116.800 351.183,116.800 337.782 L 116.800 325.164 115.800 324.164 C 114.912 323.276,114.800 322.829,114.800 320.182 C 114.800 317.268,114.777 317.200,113.800 317.200 C 112.867 317.200,112.800 317.067,112.800 315.200 C 112.800 313.346,112.729 313.200,111.823 313.200 C 110.960 313.200,110.832 313.002,110.723 311.500 C 110.628 310.187,110.395 309.710,109.700 309.405 C 109.148 309.163,108.800 308.660,108.800 308.105 C 108.800 307.413,108.571 307.200,107.828 307.200 C 107.124 307.200,106.820 306.951,106.728 306.300 C 106.619 305.532,106.321 305.382,104.700 305.278 C 102.985 305.168,102.800 305.061,102.800 304.178 C 102.800 303.409,102.592 303.200,101.828 303.200 C 101.124 303.200,100.820 302.951,100.728 302.300 C 100.611 301.474,100.361 301.390,97.700 301.282 C 94.919 301.170,94.800 301.125,94.800 300.182 L 94.800 299.200 75.000 299.200 L 55.200 299.200 55.200 300.200 M129.829 299.829 C 129.483 300.174,129.200 300.624,129.200 300.829 C 129.200 301.033,128.750 301.200,128.200 301.200 C 127.428 301.200,127.200 301.406,127.200 302.105 C 127.200 302.660,126.852 303.163,126.300 303.405 L 125.400 303.800 125.290 337.200 C 125.173 372.559,125.162 372.207,126.401 372.600 C 126.911 372.762,127.200 373.206,127.200 373.827 C 127.200 374.668,127.385 374.800,128.571 374.800 C 129.557 374.800,130.163 375.081,130.729 375.800 L 131.515 376.800 153.529 376.800 C 176.509 376.800,176.800 376.780,176.800 375.171 C 176.800 374.967,178.150 374.800,179.800 374.800 C 182.733 374.800,182.800 374.778,182.800 373.800 C 182.800 372.867,182.933 372.800,184.800 372.800 C 186.667 372.800,186.800 372.733,186.800 371.800 C 186.800 370.867,186.933 370.800,188.800 370.800 C 190.667 370.800,190.800 370.733,190.800 369.800 C 190.800 369.000,191.000 368.800,191.800 368.800 C 192.600 368.800,192.800 368.600,192.800 367.800 C 192.800 367.000,193.000 366.800,193.800 366.800 C 194.600 366.800,194.800 366.600,194.800 365.800 C 194.800 365.000,195.000 364.800,195.800 364.800 C 196.733 364.800,196.800 364.667,196.800 362.800 C 196.800 360.933,196.867 360.800,197.800 360.800 C 198.733 360.800,198.800 360.667,198.800 358.800 C 198.800 356.933,198.867 356.800,199.800 356.800 L 200.800 356.800 200.800 352.800 L 200.800 348.800 201.800 348.800 L 202.800 348.800 202.800 338.000 L 202.800 327.200 201.800 327.200 L 200.800 327.200 200.800 323.200 L 200.800 319.200 199.800 319.200 C 198.867 319.200,198.800 319.067,198.800 317.200 C 198.800 315.333,198.733 315.200,197.800 315.200 C 196.867 315.200,196.800 315.067,196.800 313.200 C 196.800 311.333,196.733 311.200,195.800 311.200 C 195.000 311.200,194.800 311.000,194.800 310.200 C 194.800 309.400,194.600 309.200,193.800 309.200 C 193.000 309.200,192.800 309.000,192.800 308.200 C 192.800 307.400,192.600 307.200,191.800 307.200 C 191.000 307.200,190.800 307.000,190.800 306.200 C 190.800 305.405,190.599 305.200,189.818 305.200 C 189.278 305.200,188.386 304.750,187.836 304.200 C 187.286 303.650,186.444 303.200,185.964 303.200 C 185.484 303.200,184.675 302.750,184.165 302.200 C 183.324 301.293,182.939 301.200,180.019 301.200 C 176.852 301.200,176.800 301.184,176.800 300.200 L 176.800 299.200 153.629 299.200 C 133.097 299.200,130.386 299.272,129.829 299.829 M257.829 299.829 C 257.269 300.389,257.200 303.661,257.200 329.829 L 257.200 359.200 231.200 359.200 L 205.200 359.200 205.200 368.000 L 205.200 376.800 232.219 376.800 L 259.238 376.800 260.165 375.800 C 260.922 374.983,261.469 374.800,263.146 374.800 C 265.070 374.800,265.200 374.737,265.200 373.800 C 265.200 372.882,265.347 372.800,266.992 372.800 C 268.571 372.800,268.815 372.681,269.036 371.800 C 269.192 371.179,269.570 370.800,270.036 370.800 C 270.493 370.800,270.879 370.426,271.026 369.838 C 271.159 369.309,271.598 368.789,272.003 368.683 C 272.521 368.548,272.817 367.958,273.009 366.682 C 273.194 365.445,273.501 364.814,273.979 364.690 C 274.384 364.584,274.789 363.957,274.939 363.203 C 275.269 361.557,275.286 300.689,274.957 299.833 C 274.594 298.887,258.774 298.883,257.829 299.829 M291.200 300.200 C 291.200 301.005,291.001 301.200,290.182 301.200 C 289.622 301.200,288.722 301.642,288.182 302.182 L 287.200 303.164 287.200 339.990 L 287.200 376.817 295.100 376.708 L 303.000 376.600 303.103 346.700 L 303.205 316.800 324.203 316.800 L 345.200 316.800 345.200 317.800 C 345.200 318.350,345.380 318.800,345.600 318.800 C 345.833 318.800,346.000 320.125,346.000 321.976 C 346.000 323.723,345.820 325.264,345.600 325.400 C 345.380 325.536,345.200 326.897,345.200 328.424 C 345.200 331.118,345.171 331.200,344.200 331.200 C 343.400 331.200,343.200 331.400,343.200 332.200 C 343.200 333.000,343.000 333.200,342.200 333.200 C 341.400 333.200,341.200 333.400,341.200 334.200 L 341.200 335.200 323.200 335.200 L 305.200 335.200 305.200 344.000 L 305.200 352.800 311.200 352.800 L 317.200 352.800 317.200 353.800 C 317.200 354.600,317.400 354.800,318.200 354.800 C 319.000 354.800,319.200 355.000,319.200 355.800 C 319.200 356.600,319.400 356.800,320.200 356.800 C 321.000 356.800,321.200 357.000,321.200 357.800 C 321.200 358.600,321.400 358.800,322.200 358.800 C 323.000 358.800,323.200 359.000,323.200 359.800 C 323.200 360.600,323.400 360.800,324.200 360.800 C 325.000 360.800,325.200 361.000,325.200 361.800 C 325.200 362.600,325.400 362.800,326.200 362.800 C 326.750 362.800,327.200 362.967,327.200 363.171 C 327.200 363.978,328.527 364.800,329.829 364.800 C 331.025 364.800,331.200 364.928,331.200 365.800 C 331.200 366.600,331.400 366.800,332.200 366.800 C 333.000 366.800,333.200 367.000,333.200 367.800 C 333.200 368.600,333.400 368.800,334.200 368.800 C 335.000 368.800,335.200 369.000,335.200 369.800 C 335.200 370.600,335.400 370.800,336.200 370.800 C 337.000 370.800,337.200 371.000,337.200 371.800 C 337.200 372.600,337.400 372.800,338.200 372.800 C 339.000 372.800,339.200 373.000,339.200 373.800 C 339.200 374.592,339.402 374.800,340.172 374.800 C 340.876 374.800,341.180 375.049,341.272 375.700 L 341.400 376.600 353.000 376.712 C 359.380 376.774,364.993 376.728,365.473 376.611 C 367.052 376.226,367.117 373.882,365.563 373.388 C 365.088 373.237,364.800 372.779,364.800 372.173 C 364.800 371.402,364.593 371.200,363.800 371.200 C 363.000 371.200,362.800 371.000,362.800 370.200 C 362.800 369.400,362.600 369.200,361.800 369.200 C 361.000 369.200,360.800 369.000,360.800 368.200 C 360.800 367.400,360.600 367.200,359.800 367.200 C 359.000 367.200,358.800 367.000,358.800 366.200 C 358.800 365.408,358.598 365.200,357.828 365.200 C 357.126 365.200,356.820 364.951,356.728 364.304 C 356.654 363.787,356.262 363.344,355.801 363.256 C 355.362 363.172,354.605 362.675,354.120 362.152 C 353.563 361.551,352.789 361.200,352.019 361.200 C 350.985 361.200,350.800 361.048,350.800 360.200 C 350.800 359.400,350.600 359.200,349.800 359.200 C 349.000 359.200,348.800 359.000,348.800 358.200 C 348.800 357.400,348.600 357.200,347.800 357.200 C 347.000 357.200,346.800 357.000,346.800 356.200 C 346.800 355.400,346.600 355.200,345.800 355.200 C 345.000 355.200,344.800 355.000,344.800 354.200 C 344.800 353.400,344.600 353.200,343.800 353.200 C 342.956 353.200,342.800 353.013,342.800 352.000 L 342.800 350.800 345.800 350.800 C 348.733 350.800,348.800 350.778,348.800 349.800 C 348.800 348.867,348.933 348.800,350.800 348.800 C 352.667 348.800,352.800 348.733,352.800 347.800 C 352.800 347.000,353.000 346.800,353.800 346.800 C 354.600 346.800,354.800 346.600,354.800 345.800 C 354.800 345.000,355.000 344.800,355.800 344.800 C 356.600 344.800,356.800 344.600,356.800 343.800 C 356.800 343.000,357.000 342.800,357.800 342.800 C 358.600 342.800,358.800 342.600,358.800 341.800 C 358.800 341.000,359.000 340.800,359.800 340.800 C 360.754 340.800,360.800 340.691,360.800 338.429 C 360.800 336.373,360.934 335.953,361.806 335.267 L 362.812 334.476 362.706 321.938 L 362.600 309.400 361.700 309.272 C 360.971 309.169,360.800 308.890,360.800 307.801 C 360.800 306.523,359.972 305.200,359.171 305.200 C 358.967 305.200,358.800 304.750,358.800 304.200 C 358.800 303.328,358.625 303.200,357.429 303.200 C 356.443 303.200,355.837 302.919,355.271 302.200 C 354.636 301.392,354.131 301.200,352.642 301.200 C 350.944 301.200,350.800 301.122,350.800 300.200 L 350.800 299.200 321.000 299.200 L 291.200 299.200 291.200 300.200 M49.467 301.467 C 49.006 301.927,49.175 302.400,49.800 302.400 C 50.130 302.400,50.400 302.130,50.400 301.800 C 50.400 301.175,49.927 301.006,49.467 301.467 M87.200 315.800 C 87.200 316.731,87.335 316.800,89.172 316.800 C 90.913 316.800,91.159 316.906,91.272 317.700 C 91.381 318.468,91.679 318.618,93.300 318.722 C 94.910 318.825,95.200 318.969,95.200 319.664 C 95.200 320.116,95.650 320.839,96.200 321.271 C 96.919 321.837,97.200 322.443,97.200 323.429 C 97.200 324.625,97.328 324.800,98.200 324.800 L 99.200 324.800 99.200 338.000 L 99.200 351.200 98.200 351.200 C 97.404 351.200,97.200 351.401,97.200 352.186 C 97.200 352.751,96.870 353.348,96.427 353.586 C 96.002 353.813,95.531 354.404,95.380 354.900 C 94.916 356.422,93.955 357.200,92.538 357.200 C 91.384 357.200,91.200 357.335,91.200 358.182 C 91.200 359.125,91.081 359.170,88.300 359.282 C 85.639 359.390,85.389 359.474,85.272 360.300 L 85.144 361.200 75.000 361.200 L 64.856 361.200 64.728 360.300 C 64.611 359.474,64.361 359.390,61.700 359.282 C 58.919 359.170,58.800 359.125,58.800 358.182 C 58.800 357.406,58.594 357.200,57.818 357.200 C 56.738 357.200,54.941 355.637,54.730 354.514 C 54.656 354.121,54.191 353.622,53.698 353.405 C 53.204 353.188,52.800 352.674,52.800 352.263 C 52.800 351.852,52.350 351.161,51.800 350.729 L 50.800 349.942 50.800 337.371 L 50.800 324.800 51.800 324.800 C 52.554 324.800,52.800 324.590,52.800 323.946 C 52.800 323.476,53.250 322.675,53.800 322.165 C 54.445 321.567,54.800 320.806,54.800 320.019 C 54.800 318.823,54.837 318.800,56.800 318.800 C 58.667 318.800,58.800 318.733,58.800 317.800 C 58.800 316.878,58.944 316.800,60.642 316.800 C 62.131 316.800,62.636 316.608,63.271 315.800 L 64.058 314.800 75.629 314.800 L 87.200 314.800 87.200 315.800 M175.200 317.800 C 175.200 318.733,175.333 318.800,177.200 318.800 C 179.067 318.800,179.200 318.867,179.200 319.800 C 179.200 320.600,179.400 320.800,180.200 320.800 C 181.000 320.800,181.200 321.000,181.200 321.800 C 181.200 322.600,181.400 322.800,182.200 322.800 C 183.133 322.800,183.200 322.933,183.200 324.800 C 183.200 326.667,183.267 326.800,184.200 326.800 L 185.200 326.800 185.200 338.000 L 185.200 349.200 184.200 349.200 C 183.267 349.200,183.200 349.333,183.200 351.200 C 183.200 353.067,183.133 353.200,182.200 353.200 C 181.400 353.200,181.200 353.400,181.200 354.200 C 181.200 355.000,181.000 355.200,180.200 355.200 C 179.400 355.200,179.200 355.400,179.200 356.200 C 179.200 357.133,179.067 357.200,177.200 357.200 C 175.333 357.200,175.200 357.267,175.200 358.200 L 175.200 359.200 159.000 359.200 L 142.800 359.200 142.800 338.000 L 142.800 316.800 159.000 316.800 L 175.200 316.800 175.200 317.800 " stroke="none" fill="#fcfcfc" fill-rule="evenodd"></path><path id="path1" d="M100.408 98.590 C 100.028 99.048,99.066 99.200,96.551 99.200 C 93.243 99.200,93.200 99.213,93.200 100.200 C 93.200 101.000,93.000 101.200,92.200 101.200 C 91.400 101.200,91.200 101.400,91.200 102.200 C 91.200 103.000,91.000 103.200,90.200 103.200 L 89.200 103.200 89.200 113.200 L 89.200 123.200 80.200 123.200 L 71.200 123.200 71.200 124.200 C 71.200 125.133,71.067 125.200,69.200 125.200 C 67.333 125.200,67.200 125.267,67.200 126.200 C 67.200 127.000,67.000 127.200,66.200 127.200 C 65.328 127.200,65.200 127.375,65.200 128.571 C 65.200 129.557,64.919 130.163,64.200 130.729 C 63.236 131.487,63.200 131.681,63.200 136.176 C 63.200 140.614,63.248 140.884,64.200 141.836 C 64.750 142.386,65.200 143.278,65.200 143.818 C 65.200 144.599,65.405 144.800,66.200 144.800 C 67.000 144.800,67.200 145.000,67.200 145.800 C 67.200 146.672,67.375 146.800,68.571 146.800 C 69.557 146.800,70.163 147.081,70.729 147.800 L 71.515 148.800 80.358 148.800 L 89.200 148.800 89.200 158.800 L 89.200 168.800 90.200 168.800 C 91.000 168.800,91.200 169.000,91.200 169.800 C 91.200 170.600,91.400 170.800,92.200 170.800 C 93.000 170.800,93.200 171.000,93.200 171.800 C 93.200 172.732,93.335 172.800,95.182 172.800 C 96.762 172.800,97.366 173.002,98.164 173.800 C 99.858 175.495,104.800 175.027,104.800 173.171 C 104.800 172.967,105.700 172.800,106.800 172.800 C 108.667 172.800,108.800 172.733,108.800 171.800 C 108.800 171.000,109.000 170.800,109.800 170.800 C 110.600 170.800,110.800 170.600,110.800 169.800 C 110.800 169.000,111.000 168.800,111.800 168.800 L 112.800 168.800 112.800 158.800 L 112.800 148.800 122.171 148.800 C 131.728 148.800,132.800 148.636,132.800 147.171 C 132.800 146.967,133.250 146.800,133.800 146.800 C 134.600 146.800,134.800 146.600,134.800 145.800 C 134.800 145.000,135.000 144.800,135.800 144.800 C 136.600 144.800,136.800 144.600,136.800 143.800 C 136.800 143.000,137.000 142.800,137.800 142.800 L 138.800 142.800 138.800 136.000 L 138.800 129.200 137.800 129.200 C 137.000 129.200,136.800 129.000,136.800 128.200 C 136.800 127.400,136.600 127.200,135.800 127.200 C 135.000 127.200,134.800 127.000,134.800 126.200 C 134.800 125.328,134.625 125.200,133.429 125.200 C 132.443 125.200,131.837 124.919,131.271 124.200 L 130.485 123.200 121.642 123.200 L 112.800 123.200 112.800 113.200 L 112.800 103.200 111.800 103.200 C 111.000 103.200,110.800 103.000,110.800 102.200 C 110.800 101.400,110.600 101.200,109.800 101.200 C 109.000 101.200,108.800 101.000,108.800 100.200 C 108.800 99.215,108.751 99.200,105.531 99.200 C 103.163 99.200,102.077 99.032,101.589 98.590 C 100.985 98.043,100.862 98.043,100.408 98.590 M280.400 101.557 C 280.400 101.827,280.192 101.919,279.938 101.762 C 279.665 101.593,279.584 101.651,279.741 101.904 C 279.886 102.139,279.779 102.423,279.502 102.534 C 279.189 102.660,279.170 102.749,279.451 102.768 C 280.034 102.809,280.993 101.660,280.657 101.324 C 280.516 101.182,280.400 101.287,280.400 101.557 M318.806 103.438 C 318.798 104.041,320.343 105.390,320.669 105.064 C 320.814 104.919,320.723 104.800,320.467 104.800 C 320.210 104.800,320.045 104.665,320.100 104.500 C 320.155 104.335,320.040 104.170,319.845 104.134 C 319.649 104.098,319.337 103.828,319.151 103.534 C 318.962 103.236,318.810 103.194,318.806 103.438 M291.693 125.600 C 291.416 126.043,291.367 126.400,291.583 126.400 C 291.797 126.400,292.165 126.040,292.400 125.600 C 292.635 125.160,292.685 124.800,292.510 124.800 C 292.335 124.800,291.968 125.160,291.693 125.600 M335.714 145.842 C 335.227 146.369,334.989 146.800,335.186 146.800 C 335.656 146.800,336.800 145.645,336.800 145.171 C 336.800 144.688,336.758 144.713,335.714 145.842 M264.000 154.951 C 264.000 155.034,264.270 155.326,264.600 155.600 C 265.091 156.008,265.200 155.980,265.200 155.449 C 265.200 155.092,264.930 154.800,264.600 154.800 C 264.270 154.800,264.000 154.868,264.000 154.951 M115.700 350.682 C 115.122 350.794,114.800 351.144,114.800 351.661 C 114.800 352.646,115.528 352.462,116.315 351.278 C 116.635 350.795,116.831 350.425,116.749 350.454 C 116.667 350.484,116.195 350.587,115.700 350.682 " stroke="none" fill="#34cc74" fill-rule="evenodd"></path><path id="path2" d="M296.409 98.589 C 296.034 99.041,294.701 99.203,290.660 99.289 C 285.548 99.397,285.396 99.425,285.272 100.300 C 285.160 101.093,284.912 101.200,283.190 101.200 C 281.639 101.200,281.030 101.406,280.236 102.200 C 279.686 102.750,278.778 103.200,278.218 103.200 C 277.399 103.200,277.200 103.395,277.200 104.200 C 277.200 105.067,277.013 105.207,275.800 105.250 C 273.565 105.330,273.403 105.373,273.350 105.900 C 273.322 106.175,273.278 106.567,273.250 106.772 C 273.223 106.977,272.795 107.202,272.300 107.272 C 271.730 107.353,271.354 107.721,271.275 108.275 C 271.198 108.821,270.821 109.198,270.275 109.275 C 269.721 109.354,269.353 109.730,269.272 110.300 C 269.164 111.064,268.632 111.370,267.583 111.275 C 267.464 111.264,267.327 111.828,267.280 112.528 C 267.228 113.304,266.806 114.143,266.197 114.681 C 265.649 115.165,265.200 115.888,265.200 116.286 C 265.200 116.684,264.795 117.188,264.300 117.405 C 263.597 117.714,263.348 118.237,263.163 119.800 C 263.032 120.900,262.897 121.665,262.863 121.500 C 262.520 119.865,261.326 123.034,261.246 125.790 C 261.144 129.311,261.174 129.216,260.137 129.368 C 259.461 129.466,259.390 130.023,259.278 136.133 L 259.155 142.792 260.178 143.814 C 261.091 144.728,261.200 145.154,261.200 147.818 C 261.200 150.732,261.223 150.800,262.200 150.800 C 263.133 150.800,263.200 150.933,263.200 152.800 C 263.200 154.667,263.267 154.800,264.200 154.800 C 265.133 154.800,265.200 154.933,265.200 156.800 C 265.200 158.667,265.267 158.800,266.200 158.800 C 267.000 158.800,267.200 159.000,267.200 159.800 C 267.200 160.600,267.400 160.800,268.200 160.800 C 269.004 160.800,269.200 160.999,269.200 161.814 C 269.200 162.372,269.605 163.181,270.100 163.611 C 270.595 164.041,271.599 164.935,272.331 165.597 C 273.063 166.259,274.008 166.800,274.431 166.800 C 274.985 166.800,275.200 167.080,275.200 167.800 C 275.200 168.600,275.400 168.800,276.200 168.800 C 276.750 168.800,277.223 168.980,277.250 169.200 C 277.278 169.420,277.322 169.825,277.350 170.100 C 277.380 170.403,278.147 170.648,279.300 170.722 C 280.833 170.820,281.200 170.986,281.200 171.579 C 281.200 172.540,281.965 172.800,284.789 172.800 C 286.935 172.800,287.133 172.877,287.364 173.800 L 287.615 174.800 298.208 174.800 L 308.800 174.800 308.800 173.800 C 308.800 172.822,308.867 172.800,311.800 172.800 C 314.733 172.800,314.800 172.778,314.800 171.800 C 314.800 170.867,314.933 170.800,316.800 170.800 C 318.667 170.800,318.800 170.733,318.800 169.800 C 318.800 169.000,319.000 168.800,319.800 168.800 C 320.594 168.800,320.800 168.599,320.800 167.822 C 320.800 166.939,320.985 166.832,322.700 166.722 C 324.304 166.619,324.619 166.464,324.725 165.725 C 324.802 165.179,325.179 164.802,325.725 164.725 C 326.279 164.646,326.647 164.270,326.728 163.700 C 326.798 163.205,327.010 162.800,327.199 162.800 C 327.980 162.800,328.800 161.454,328.800 160.171 C 328.800 158.975,328.928 158.800,329.800 158.800 C 330.592 158.800,330.800 158.598,330.800 157.828 C 330.800 157.124,331.049 156.820,331.700 156.728 C 332.461 156.620,332.618 156.319,332.718 154.787 C 332.811 153.366,333.027 152.890,333.718 152.587 C 334.482 152.252,334.616 151.840,334.718 149.500 C 334.816 147.258,335.003 146.633,335.818 145.818 L 336.800 144.836 336.800 136.018 L 336.800 127.200 335.800 127.200 C 334.822 127.200,334.800 127.133,334.800 124.200 C 334.800 121.267,334.778 121.200,333.800 121.200 C 332.867 121.200,332.800 121.067,332.800 119.200 C 332.800 117.333,332.733 117.200,331.800 117.200 C 330.882 117.200,330.800 117.053,330.800 115.408 C 330.800 113.829,330.681 113.585,329.800 113.364 C 329.082 113.184,328.800 112.843,328.800 112.157 C 328.800 111.403,328.588 111.200,327.800 111.200 C 327.000 111.200,326.800 111.000,326.800 110.200 C 326.800 109.400,326.600 109.200,325.800 109.200 C 325.000 109.200,324.800 109.000,324.800 108.200 C 324.800 107.400,324.600 107.200,323.800 107.200 C 323.000 107.200,322.800 107.000,322.800 106.200 C 322.800 105.331,322.623 105.200,321.449 105.200 C 320.078 105.200,318.962 104.396,319.503 103.799 C 319.667 103.619,319.575 103.601,319.300 103.759 C 319.025 103.918,318.800 103.857,318.800 103.624 C 318.800 103.391,318.350 103.200,317.800 103.200 C 317.086 103.200,316.800 102.984,316.800 102.443 C 316.800 101.510,316.050 101.200,313.796 101.200 C 312.419 101.200,311.895 100.993,311.271 100.200 C 310.505 99.225,310.355 99.200,305.291 99.200 C 301.163 99.200,299.996 99.077,299.600 98.600 C 298.962 97.831,297.044 97.824,296.409 98.589 M299.250 123.200 C 299.278 123.420,299.322 123.825,299.350 124.100 C 299.406 124.665,299.493 124.681,302.800 124.750 C 305.080 124.797,305.200 124.850,305.200 125.800 C 305.200 126.600,305.400 126.800,306.200 126.800 C 307.000 126.800,307.200 127.000,307.200 127.800 C 307.200 128.594,307.402 128.800,308.177 128.800 C 309.040 128.800,309.168 128.998,309.277 130.500 C 309.372 131.813,309.605 132.290,310.300 132.595 C 311.149 132.967,311.200 133.221,311.200 137.095 L 311.200 141.200 310.200 141.200 C 309.356 141.200,309.200 141.387,309.200 142.400 C 309.200 143.060,309.032 143.600,308.826 143.600 C 308.621 143.600,307.940 144.365,307.313 145.300 C 306.425 146.624,305.866 147.044,304.786 147.200 C 303.729 147.353,303.370 147.613,303.272 148.300 C 303.060 149.791,293.411 149.697,293.036 148.200 C 292.856 147.485,292.514 147.200,291.836 147.200 C 291.157 147.200,290.815 146.915,290.636 146.200 C 290.474 145.554,290.104 145.200,289.592 145.200 C 289.014 145.200,288.800 144.930,288.800 144.200 C 288.800 143.467,288.587 143.200,288.000 143.200 C 287.438 143.200,287.199 142.932,287.197 142.300 C 287.194 141.250,285.866 139.068,285.470 139.463 C 285.321 139.612,285.200 138.186,285.200 136.294 C 285.200 133.033,285.246 132.849,286.100 132.728 C 286.868 132.619,287.018 132.321,287.122 130.700 C 287.232 128.985,287.339 128.800,288.222 128.800 C 288.999 128.800,289.200 128.594,289.200 127.800 C 289.200 127.019,289.405 126.800,290.132 126.800 C 290.713 126.800,291.263 126.430,291.590 125.818 C 292.037 124.983,292.449 124.819,294.358 124.718 C 296.336 124.614,296.615 124.494,296.728 123.700 C 296.860 122.766,299.139 122.315,299.250 123.200 " stroke="none" fill="#cc3434" fill-rule="evenodd"></path><path id="path3" d="" stroke="none" fill="#c8c8100" fill-rule="evenodd"></path><path id="path4" d="" stroke="none" fill="#c8c8100" fill-rule="evenodd"></path></g></svg>